<?xml version="1.0" encoding="utf-8"?>
<!-- Generator: Adobe Illustrator 24.0.2, SVG Export Plug-In . SVG Version: 6.00 Build 0)  -->
<svg version="1.1" id="Layer_1" xmlns="http://www.w3.org/2000/svg" xmlns:xlink="http://www.w3.org/1999/xlink" x="0px" y="0px"
	 viewBox="0 0 50 50" style="enable-background:new 0 0 50 50;" xml:space="preserve">
<style type="text/css">
	.st0{fill:#282E64;}
	.st1{fill:#FFFFFF;}
</style>
<g>
	<circle class="st0" cx="25" cy="25" r="25"/>
</g>
<g>
	<path class="st1" d="M23.06,17.95c-0.87,0.87-0.87,2.27,0,3.14l6.06,6.06l0,0c0.97,0.92,1.57,2.23,1.57,3.65
		c0,2.77-2.26,5.03-5.03,5.03c-1.13,0-2.17-0.38-3.01-1.01l0,0l-3.38-3.34c-0.87-0.87-2.27-0.87-3.14,0c-0.87,0.87-0.87,2.27,0,3.14
		l3.36,3.36l0,0c0,0,0,0,0,0l0.02,0.02l0,0c1.65,1.41,3.8,2.27,6.14,2.27c5.22,0,9.47-4.25,9.47-9.47c0-1.3-0.27-2.55-0.76-3.69
		c-0.07-0.17-0.15-0.33-0.23-0.49c-0.03-0.05-0.05-0.1-0.08-0.15c-0.06-0.11-0.12-0.22-0.18-0.33c-0.03-0.06-0.06-0.11-0.1-0.17
		c-0.08-0.14-0.17-0.27-0.26-0.41c-0.05-0.08-0.1-0.15-0.16-0.22c-0.05-0.06-0.09-0.13-0.14-0.19c-0.06-0.08-0.13-0.17-0.19-0.25
		c-0.03-0.04-0.07-0.08-0.1-0.12c-0.16-0.2-0.33-0.39-0.51-0.57c0,0,0,0,0,0l-6.24-6.25C25.33,17.08,23.92,17.08,23.06,17.95z"/>
	<path class="st1" d="M30.49,12.01c-1.65-1.41-3.8-2.27-6.14-2.27c-5.22,0-9.47,4.25-9.47,9.47c0,1.3,0.27,2.55,0.76,3.69
		c0.07,0.17,0.15,0.33,0.23,0.49c0.03,0.05,0.05,0.1,0.08,0.15c0.06,0.11,0.12,0.22,0.18,0.33c0.03,0.06,0.06,0.11,0.1,0.17
		c0.08,0.14,0.17,0.27,0.26,0.41c0.05,0.08,0.1,0.15,0.16,0.22c0.05,0.06,0.09,0.13,0.14,0.19c0.06,0.08,0.13,0.17,0.19,0.25
		c0.03,0.04,0.07,0.08,0.1,0.12c0.16,0.2,0.33,0.39,0.51,0.57c0,0,0,0,0,0l-0.03-0.02l6.27,6.27c0.87,0.87,2.27,0.87,3.14,0
		c0.87-0.87,0.87-2.27,0-3.14l-6.06-6.06l0,0c-0.97-0.92-1.57-2.23-1.57-3.66c0-2.77,2.26-5.03,5.03-5.03
		c1.13,0,2.17,0.38,3.01,1.01l0,0l3.38,3.34c0.87,0.87,2.27,0.87,3.14,0c0.87-0.87,0.87-2.27,0-3.14c0,0-3.36-3.36-3.36-3.36
		L30.49,12.01z"/>
</g>
</svg>
