<?xml version="1.0" encoding="utf-8"?>
<!-- Generator: Adobe Illustrator 24.0.2, SVG Export Plug-In . SVG Version: 6.00 Build 0)  -->
<svg version="1.1" id="Layer_1" xmlns="http://www.w3.org/2000/svg" xmlns:xlink="http://www.w3.org/1999/xlink" x="0px" y="0px"
	 viewBox="0 0 40 40" style="enable-background:new 0 0 40 40;" xml:space="preserve">
<style type="text/css">
	.st0{fill:#FFFFFF;}
	.st1{fill:#282E64;}
</style>
<g>
	<circle class="st0" cx="20" cy="20" r="20"/>
</g>
<path class="st1" d="M28.38,12.05L11.16,18.7c-0.33,0.13-0.5,0.5-0.37,0.84c0.07,0.18,0.22,0.32,0.4,0.38l4.35,1.43l1.9,5.87v0.01
	c0,0.01,0.01,0.01,0.01,0.02c0.05,0.1,0.17,0.13,0.27,0.08c0.02-0.01,0.03-0.02,0.04-0.03l2.97-2.8l4.61,3.39
	c0.29,0.21,0.69,0.15,0.9-0.14c0.06-0.08,0.1-0.17,0.11-0.26l2.89-14.71c0.07-0.35-0.16-0.69-0.51-0.76
	C28.61,11.99,28.49,12,28.38,12.05 M17.86,22.36l-0.31,3.71l-1.47-4.54l8.64-5.48L17.86,22.36z"/>
</svg>
