<?xml version="1.0" encoding="utf-8"?>
<!-- Generator: Adobe Illustrator 24.0.2, SVG Export Plug-In . SVG Version: 6.00 Build 0)  -->
<svg version="1.1" id="Layer_1" xmlns="http://www.w3.org/2000/svg" xmlns:xlink="http://www.w3.org/1999/xlink" x="0px" y="0px"
	 viewBox="0 0 40 40" style="enable-background:new 0 0 40 40;" xml:space="preserve">
<style type="text/css">
	.st0{fill:#FFFFFF;}
	.st1{fill:#282E64;}
</style>
<g>
	<circle class="st0" cx="20" cy="20" r="20"/>
</g>
<path class="st1" d="M16.18,28C13.87,28,12,26.13,12,23.82v-7.65c0-2.31,1.87-4.18,4.18-4.18h7.65c2.31,0,4.18,1.87,4.18,4.18v7.65
	c0,2.31-1.87,4.18-4.18,4.18H16.18z M13.37,16.18v7.65c0,1.55,1.26,2.81,2.81,2.81h7.65c1.55,0,2.81-1.26,2.81-2.81v-7.65
	c0-1.55-1.26-2.81-2.81-2.81h-7.65C14.63,13.37,13.37,14.63,13.37,16.18z M15.89,20c0-2.27,1.84-4.11,4.11-4.11
	c2.27,0,4.11,1.84,4.11,4.11c0,2.27-1.84,4.11-4.11,4.11C17.73,24.11,15.89,22.27,15.89,20L15.89,20z M17.25,20
	c0,1.51,1.23,2.74,2.74,2.74c1.51,0,2.74-1.23,2.74-2.74c0-1.51-1.23-2.74-2.74-2.74C18.48,17.26,17.26,18.49,17.25,20L17.25,20z
	 M23.28,15.7c0-0.52,0.42-0.94,0.94-0.94c0.52,0,0.94,0.42,0.94,0.94s-0.42,0.94-0.94,0.94C23.7,16.65,23.28,16.22,23.28,15.7
	L23.28,15.7z"/>
</svg>
