<?xml version="1.0" encoding="utf-8"?>
<!-- Generator: Adobe Illustrator 24.0.2, SVG Export Plug-In . SVG Version: 6.00 Build 0)  -->
<svg version="1.1" id="Layer_1" xmlns="http://www.w3.org/2000/svg" xmlns:xlink="http://www.w3.org/1999/xlink" x="0px" y="0px"
	 viewBox="0 0 40 40" style="enable-background:new 0 0 40 40;" xml:space="preserve">
<style type="text/css">
	.st0{fill:#FFFFFF;}
	.st1{fill:#282E64;}
</style>
<g>
	<circle class="st0" cx="20" cy="20" r="20"/>
</g>
<path class="st1" d="M30.53,14.33c-0.41,0.58-0.89,1.12-1.42,1.6c-0.57,0.52-0.47,0.88-0.53,1.59c-0.08,1.06-0.31,2.11-0.66,3.12
	c-0.7,2-1.92,3.77-3.53,5.13c-4.03,3.18-9.62,3.51-13.98,0.8c2.18,0.28,4.38-0.34,6.11-1.7c-1.78-0.02-3.35-1.19-3.88-2.9
	c0.59,0.17,1.22,0.16,1.81-0.02c-1.98-0.31-3.4-2.08-3.26-4.08c0.56,0.33,1.21,0.5,1.86,0.49c-1.79-1.22-2.34-3.61-1.26-5.49
	c1.3,1.94,6.09,4.65,8.27,4.17c-0.29-1.99,0.86-3.91,2.75-4.6c1.06-0.37,2.22-0.35,3.26,0.07c0.43,0.17,0.83,0.43,1.17,0.76
	c0.04,0.05,0.1,0.09,0.17,0.11c0.05,0.01,0.09,0.01,0.14-0.01c0.78-0.24,1.54-0.55,2.27-0.92c-0.29,0.95-0.91,1.76-1.76,2.29
	c0.72-0.18,1.43-0.4,2.12-0.66c0.08-0.04,0.18-0.06,0.27-0.04C30.58,14.09,30.62,14.19,30.53,14.33"/>
</svg>
