<?xml version="1.0" encoding="utf-8"?>
<!-- Generator: Adobe Illustrator 24.0.2, SVG Export Plug-In . SVG Version: 6.00 Build 0)  -->
<svg version="1.1" id="Layer_1" xmlns="http://www.w3.org/2000/svg" xmlns:xlink="http://www.w3.org/1999/xlink" x="0px" y="0px"
	 viewBox="0 0 500 592" style="enable-background:new 0 0 500 592;" xml:space="preserve">
<style type="text/css">
	.st0{fill:#FFFFFF;}
</style>
<g>
	<g>
		<path class="st0" d="M243.41,158.51c8.03,0,15.58,3.13,21.25,8.8L382.9,285.84c3,3.09,5.94,6.38,8.99,10.06l0.54,0.65
			c0.42,0.5,0.83,1,1.23,1.5c1.15,1.43,2.31,2.93,3.45,4.46c0.83,1.1,1.69,2.31,2.43,3.36l0.77,1.08c0.72,1,1.39,1.95,2.02,2.88
			c1.51,2.25,3,4.62,4.56,7.22c0.4,0.67,0.78,1.35,1.17,2.03l0.54,0.95c1.11,1.95,2.18,3.91,3.18,5.83l0.2,0.39
			c0.4,0.78,0.81,1.56,1.2,2.36c1.63,3.29,2.92,6.05,4.04,8.68c8.87,20.82,13.37,42.82,13.37,65.4
			c0,92.43-75.2,167.63-167.63,167.63c-39.77,0-78.39-14.29-108.74-40.24c-0.05-0.05-0.11-0.09-0.16-0.14l-63.33-63.33
			c-5.68-5.68-8.8-13.22-8.8-21.26c0-8.03,3.13-15.58,8.81-21.26c5.68-5.68,13.23-8.81,21.26-8.81c8.03,0,15.58,3.13,21.26,8.81
			c0.02,0.02,0.03,0.03,0.05,0.05l64.07,63.4c0.39,0.38,0.8,0.74,1.23,1.07c18.8,14.12,41.06,21.58,64.36,21.58
			c59.27,0,107.49-48.22,107.49-107.49c0-28.79-11.83-56.75-32.51-76.96c-0.25-0.31-0.52-0.61-0.81-0.9l-115-115.01
			c-5.68-5.68-8.81-13.23-8.81-21.26c0-8.03,3.13-15.58,8.81-21.26C227.82,161.64,235.37,158.51,243.41,158.51 M243.41,146.51
			c-10.77,0-21.53,4.11-29.75,12.32c-16.43,16.43-16.43,43.06,0,59.49l115,115.01l-0.06,0.06c18.46,17.53,29.87,42.28,29.87,69.31
			c0,52.65-42.84,95.49-95.49,95.49c-21.45,0-41.2-7.19-57.16-19.18l-64.07-63.4c-8.21-8.22-18.98-12.32-29.75-12.32
			s-21.53,4.11-29.75,12.32c-16.43,16.43-16.43,43.07,0,59.49l63.74,63.74l0,0c0,0,0,0,0.01,0l0.44,0.36
			c31.4,26.84,72.09,43.12,116.54,43.12c99.05,0,179.63-80.58,179.63-179.63c0-24.74-5.11-48.46-14.33-70.1
			c-1.35-3.16-2.81-6.25-4.33-9.32c-0.49-0.99-1-1.96-1.5-2.94c-1.1-2.11-2.24-4.2-3.41-6.26c-0.6-1.06-1.19-2.12-1.81-3.17
			c-1.57-2.63-3.2-5.21-4.9-7.75c-0.96-1.44-1.98-2.83-2.97-4.23c-0.86-1.21-1.72-2.42-2.61-3.61c-1.2-1.61-2.43-3.2-3.69-4.77
			c-0.63-0.78-1.27-1.54-1.91-2.31c-3.08-3.72-6.29-7.34-9.66-10.8c0,0,0,0,0,0l-118.32-118.6
			C264.94,150.62,254.17,146.51,243.41,146.51L243.41,146.51z"/>
	</g>
	<g>
		<path class="st0" d="M238.09,15c39.77,0,78.39,14.29,108.74,40.24c0.05,0.05,0.11,0.09,0.16,0.14
			c5.41,5.41,63.33,63.33,63.33,63.33c5.68,5.68,8.8,13.22,8.8,21.26c0,8.03-3.13,15.58-8.81,21.26
			c-5.68,5.68-13.23,8.81-21.26,8.81c-8.03,0-15.58-3.13-21.26-8.81c-0.02-0.02-0.03-0.03-0.05-0.05l-64.07-63.4
			c-0.35-0.34-0.71-0.67-1.1-0.96c-18.88-14.59-39.97-21.68-64.5-21.68c-59.27,0-107.49,48.22-107.49,107.49
			c0,29.31,12.18,57.72,33.43,77.96l114.9,114.9c5.68,5.68,8.81,13.23,8.81,21.26c0,8.03-3.13,15.58-8.81,21.26
			c-5.68,5.68-13.23,8.81-21.27,8.81c-8.03,0-15.58-3.13-21.25-8.8L118.18,299.49c-3.01-3.09-5.95-6.39-9-10.07l-0.54-0.64
			c-0.42-0.5-0.84-1-1.24-1.5c-1.15-1.43-2.31-2.93-3.45-4.47c-0.8-1.07-1.6-2.19-2.43-3.36l-0.77-1.08
			c-0.72-1.01-1.4-1.95-2.02-2.89c-1.51-2.25-3.01-4.62-4.56-7.22c-0.4-0.67-0.78-1.35-1.17-2.03l-0.53-0.94
			c-1.12-1.95-2.19-3.92-3.18-5.83l-0.19-0.36c-0.41-0.79-0.82-1.58-1.22-2.38c-1.64-3.29-2.92-6.05-4.04-8.69
			c-8.87-20.82-13.37-42.82-13.37-65.4C70.46,90.2,145.66,15,238.09,15 M238.09,3C139.05,3,58.46,83.58,58.46,182.63
			c0,24.74,5.11,48.46,14.33,70.1c1.35,3.16,2.81,6.25,4.33,9.32c0.49,0.99,1,1.96,1.5,2.94c1.1,2.11,2.24,4.2,3.41,6.26
			c0.6,1.06,1.19,2.12,1.81,3.17c1.57,2.63,3.2,5.21,4.9,7.75c0.96,1.44,1.98,2.83,2.97,4.23c0.86,1.21,1.72,2.42,2.61,3.61
			c1.2,1.61,2.43,3.2,3.69,4.77c0.63,0.78,1.27,1.54,1.91,2.31c3.08,3.72,6.29,7.34,9.66,10.8c0,0,0,0,0,0l118.32,118.6
			c8.21,8.21,18.98,12.32,29.74,12.32c10.77,0,21.53-4.11,29.75-12.32c16.43-16.43,16.43-43.06,0-59.49l-115-115.01
			c-18.46-17.53-29.81-42.34-29.81-69.37c0-52.65,42.84-95.49,95.49-95.49c21.45,0,39.84,5.79,57.16,19.18l64.07,63.4
			c8.21,8.22,18.98,12.32,29.75,12.32s21.53-4.11,29.75-12.32c16.43-16.43,16.43-43.07,0-59.49c0,0-63.74-63.74-63.74-63.74
			l-0.44-0.36C323.24,19.27,282.54,3,238.09,3L238.09,3z"/>
	</g>
</g>
</svg>
