<svg xmlns="http://www.w3.org/2000/svg" xmlns:xlink="http://www.w3.org/1999/xlink" width="183.695" height="9.58" viewBox="0 0 183.695 9.58">
  <defs>
    <clipPath id="clip-path">
      <path id="Clip_4" data-name="Clip 4" d="M0,0H10.667V9.187H0Z" transform="translate(0 0.605)" fill="none"/>
    </clipPath>
    <clipPath id="clip-path-2">
      <path id="Clip_13" data-name="Clip 13" d="M0,0H11.777V9.557H0Z" transform="translate(0.455 0.42)" fill="none"/>
    </clipPath>
    <clipPath id="clip-path-3">
      <path id="Clip_26" data-name="Clip 26" d="M0,0H11.777V9.557H0Z" transform="translate(0.845 0.42)" fill="none"/>
    </clipPath>
    <clipPath id="clip-path-4">
      <path id="Clip_31" data-name="Clip 31" d="M0,0H10.3V9.58H0Z" transform="translate(0.793 0.421)" fill="none"/>
    </clipPath>
    <clipPath id="clip-path-5">
      <path id="Clip_64" data-name="Clip 64" d="M0,0H9.186V9.187H0Z" transform="translate(0.509 0.605)" fill="none"/>
    </clipPath>
  </defs>
  <g id="Group_66" data-name="Group 66" transform="translate(0 -1)">
    <path id="Fill_1" data-name="Fill 1" d="M6.653,8.878H0V0H7.4A5.378,5.378,0,0,1,8.745.136a1.788,1.788,0,0,1,.783.4,1.3,1.3,0,0,1,.366.656,3.945,3.945,0,0,1,.094.9,3.011,3.011,0,0,1-.064.653,2.184,2.184,0,0,1-.167.492,1.5,1.5,0,0,1-.237.348,1.489,1.489,0,0,1-1.012.483,2.134,2.134,0,0,1,.925.254,2.035,2.035,0,0,1,.338.247,1.547,1.547,0,0,1,.294.364,2.025,2.025,0,0,1,.212.509,2.523,2.523,0,0,1,.081.672,7.657,7.657,0,0,1-.044.848,2.354,2.354,0,0,1-.176.689,1.6,1.6,0,0,1-.381.538,1.987,1.987,0,0,1-.661.384A4.614,4.614,0,0,1,8.083,8.8,11.673,11.673,0,0,1,6.653,8.878ZM1.11,4.624V7.953H6.283c.423,0,.8-.007,1.121-.021a5.341,5.341,0,0,0,.8-.086,1.634,1.634,0,0,0,.531-.191.874.874,0,0,0,.315-.329,1.441,1.441,0,0,0,.154-.5,5.49,5.49,0,0,0,.04-.711,3.546,3.546,0,0,0-.04-.563,1,1,0,0,0-.154-.4.811.811,0,0,0-.315-.266,2,2,0,0,0-.531-.158,5.99,5.99,0,0,0-.8-.078c-.329-.013-.707-.02-1.121-.02Zm0-3.7V3.7H6.283c.37,0,.7-.008.977-.023a4.294,4.294,0,0,0,.7-.086,1.459,1.459,0,0,0,.468-.176.821.821,0,0,0,.282-.292,1.245,1.245,0,0,0,.136-.431,4.6,4.6,0,0,0,.033-.6,1.858,1.858,0,0,0-.081-.6.655.655,0,0,0-.289-.356A1.456,1.456,0,0,0,7.945.968,7.585,7.585,0,0,0,7.034.925Z" transform="translate(0.154 1.34)" fill="#27306c"/>
    <g id="Group_5" data-name="Group 5" transform="translate(0 0.58)">
      <path id="Clip_4-2" data-name="Clip 4" d="M0,0H10.667V9.187H0Z" transform="translate(0 0.605)" fill="none"/>
      <g id="Group_5-2" data-name="Group 5" clip-path="url(#clip-path)">
        <path id="Fill_3" data-name="Fill 3" d="M6.808,9.187H0V0H7.559A5.5,5.5,0,0,1,8.94.141,1.935,1.935,0,0,1,9.79.577a1.456,1.456,0,0,1,.41.734,4.035,4.035,0,0,1,.1.937,3.2,3.2,0,0,1-.067.687,2.342,2.342,0,0,1-.18.526,1.612,1.612,0,0,1-.264.386,1.664,1.664,0,0,1-.3.257,1.384,1.384,0,0,1-.154.093,2.109,2.109,0,0,1,.329.148,2.022,2.022,0,0,1,.365.265,1.694,1.694,0,0,1,.324.4,2.235,2.235,0,0,1,.228.547,2.687,2.687,0,0,1,.086.715,7.706,7.706,0,0,1-.044.864,2.558,2.558,0,0,1-.188.734,1.745,1.745,0,0,1-.418.589,2.125,2.125,0,0,1-.714.417,4.731,4.731,0,0,1-1.047.236A11.693,11.693,0,0,1,6.808,9.187ZM.309.309V8.878h6.5A11.493,11.493,0,0,0,8.219,8.8a4.384,4.384,0,0,0,.977-.22,1.823,1.823,0,0,0,.61-.353,1.446,1.446,0,0,0,.345-.486,2.264,2.264,0,0,0,.165-.646,7.552,7.552,0,0,0,.042-.83,2.419,2.419,0,0,0-.075-.633,1.928,1.928,0,0,0-.2-.47,1.4,1.4,0,0,0-.266-.329,1.854,1.854,0,0,0-.311-.227,1.976,1.976,0,0,0-.858-.235l0-.308a1.322,1.322,0,0,0,.664-.222,1.369,1.369,0,0,0,.246-.211,1.287,1.287,0,0,0,.212-.313,1.949,1.949,0,0,0,.155-.456,2.8,2.8,0,0,0,.06-.618A3.8,3.8,0,0,0,9.9,1.38,1.133,1.133,0,0,0,9.576.8,1.641,1.641,0,0,0,8.86.439a5.257,5.257,0,0,0-1.3-.13ZM6.438,8.262H1.11V4.624H6.438c.417,0,.8.007,1.128.02a6.765,6.765,0,0,1,.823.08,2.125,2.125,0,0,1,.574.173.979.979,0,0,1,.373.317,1.171,1.171,0,0,1,.178.466,3.657,3.657,0,0,1,.042.589A5.5,5.5,0,0,1,9.515,7a1.573,1.573,0,0,1-.171.554,1,1,0,0,1-.369.386,1.8,1.8,0,0,1-.581.211,5.42,5.42,0,0,1-.828.089C7.245,8.255,6.866,8.262,6.438,8.262ZM1.419,4.933v3.02H6.438c.424,0,.8-.007,1.114-.021a5.034,5.034,0,0,0,.78-.084,1.459,1.459,0,0,0,.481-.171.717.717,0,0,0,.261-.272,1.253,1.253,0,0,0,.135-.447,5.158,5.158,0,0,0,.04-.689,3.226,3.226,0,0,0-.039-.537.85.85,0,0,0-.128-.344.671.671,0,0,0-.256-.215,1.856,1.856,0,0,0-.49-.145,6.306,6.306,0,0,0-.784-.076c-.3-.013-.68-.02-1.114-.02Zm5.018-.925H1.11V.925H7.189a7.951,7.951,0,0,1,.929.044,1.585,1.585,0,0,1,.624.188.806.806,0,0,1,.356.437,2,2,0,0,1,.089.653,4.706,4.706,0,0,1-.036.618A1.375,1.375,0,0,1,9,3.351a.977.977,0,0,1-.333.347,1.65,1.65,0,0,1-.517.2,4.574,4.574,0,0,1-.724.09C7.144,4,6.812,4.008,6.438,4.008ZM1.419,1.233V3.7H6.438c.37,0,.7-.008.968-.023a4.315,4.315,0,0,0,.675-.083A1.354,1.354,0,0,0,8.5,3.437.657.657,0,0,0,8.728,3.2a1.048,1.048,0,0,0,.117-.374,4.376,4.376,0,0,0,.034-.577A1.712,1.712,0,0,0,8.806,1.7a.493.493,0,0,0-.221-.273,1.306,1.306,0,0,0-.5-.147,7.669,7.669,0,0,0-.892-.043Z" transform="translate(0 0.605)" fill="#27306c"/>
      </g>
    </g>
    <path id="Fill_6" data-name="Fill 6" d="M0,8.878V0H1.11V7.953H8.138v.925Z" transform="translate(12.362 1.339)" fill="#27306c"/>
    <path id="Fill_8" data-name="Fill 8" d="M8.447,9.187H0V0H1.419V7.953H8.447V9.186ZM.309.309V8.878H8.138V8.262H1.11V.309Z" transform="translate(12.207 1.185)" fill="#27306c"/>
    <path id="Fill_10" data-name="Fill 10" d="M7.4,9.248H4.063a10.121,10.121,0,0,1-1.714-.124A3.711,3.711,0,0,1,1.2,8.748a1.928,1.928,0,0,1-.7-.633,2.741,2.741,0,0,1-.359-.9,6.313,6.313,0,0,1-.13-1.162C.006,5.6,0,5.122,0,4.624S.006,3.643.017,3.19a6.328,6.328,0,0,1,.13-1.161,2.727,2.727,0,0,1,.359-.9A1.9,1.9,0,0,1,1.2.5,3.691,3.691,0,0,1,2.349.124,10.037,10.037,0,0,1,4.063,0H7.4A10.037,10.037,0,0,1,9.118.124,3.7,3.7,0,0,1,10.265.5a1.889,1.889,0,0,1,.694.633,2.743,2.743,0,0,1,.355.9,6.467,6.467,0,0,1,.133,1.161c.013.42.02.9.02,1.435s-.007,1.013-.02,1.433a6.451,6.451,0,0,1-.133,1.162,2.757,2.757,0,0,1-.355.9,1.914,1.914,0,0,1-.694.633,3.715,3.715,0,0,1-1.148.376A10.121,10.121,0,0,1,7.4,9.248ZM4.063.925c-.507,0-.914.014-1.245.043a2.969,2.969,0,0,0-.836.176,1.13,1.13,0,0,0-.508.382,1.631,1.631,0,0,0-.26.659,5.854,5.854,0,0,0-.093,1.008c-.008.388-.012.856-.012,1.431s0,1.04.014,1.43a6.089,6.089,0,0,0,.094,1.009,1.7,1.7,0,0,0,.258.659,1.1,1.1,0,0,0,.5.381,2.932,2.932,0,0,0,.836.177c.336.029.755.043,1.245.043H7.4c.487,0,.9-.015,1.239-.043A2.917,2.917,0,0,0,9.479,8.1a1.128,1.128,0,0,0,.509-.381,1.687,1.687,0,0,0,.26-.659,6.066,6.066,0,0,0,.095-1.009c.01-.409.015-.89.015-1.43s-.005-1.022-.015-1.431a6.023,6.023,0,0,0-.095-1.008,1.676,1.676,0,0,0-.26-.659,1.128,1.128,0,0,0-.506-.382A2.93,2.93,0,0,0,8.65.968C8.32.939,7.912.925,7.4.925Z" transform="translate(21.61 1.154)" fill="#27306c"/>
    <g id="Group_14" data-name="Group 14" transform="translate(21 0.58)">
      <path id="Clip_13-2" data-name="Clip 13" d="M0,0H11.777V9.557H0Z" transform="translate(0.455 0.42)" fill="none"/>
      <g id="Group_14-2" data-name="Group 14" clip-path="url(#clip-path-2)">
        <path id="Fill_12" data-name="Fill 12" d="M7.559,9.557H4.218A10.125,10.125,0,0,1,2.477,9.43a3.859,3.859,0,0,1-1.2-.392,2.083,2.083,0,0,1-.751-.684,2.9,2.9,0,0,1-.38-.947A6.293,6.293,0,0,1,.018,6.216C.006,5.778,0,5.294,0,4.779s.006-1,.018-1.438a6.274,6.274,0,0,1,.133-1.19A2.9,2.9,0,0,1,.531,1.2,2.073,2.073,0,0,1,1.282.52a3.883,3.883,0,0,1,1.2-.393A10.208,10.208,0,0,1,4.218,0H7.559A10.2,10.2,0,0,1,9.3.127a3.878,3.878,0,0,1,1.2.393,2.041,2.041,0,0,1,.749.685,2.919,2.919,0,0,1,.376.946,6.492,6.492,0,0,1,.136,1.19c.014.43.022.914.022,1.438s-.007,1.008-.022,1.438a6.5,6.5,0,0,1-.136,1.19,2.935,2.935,0,0,1-.376.946,2.051,2.051,0,0,1-.749.685,3.854,3.854,0,0,1-1.2.392A10.119,10.119,0,0,1,7.559,9.557ZM4.218.309A9.871,9.871,0,0,0,2.531.431a3.566,3.566,0,0,0-1.1.359,1.767,1.767,0,0,0-.642.58,2.587,2.587,0,0,0-.337.846A6.208,6.208,0,0,0,.326,3.35C.314,3.8.309,4.28.309,4.779s.006.98.017,1.429A6.224,6.224,0,0,0,.453,7.341a2.578,2.578,0,0,0,.337.845,1.761,1.761,0,0,0,.642.581,3.566,3.566,0,0,0,1.1.359,9.971,9.971,0,0,0,1.687.122H7.559a9.928,9.928,0,0,0,1.686-.122,3.56,3.56,0,0,0,1.1-.359,1.747,1.747,0,0,0,.638-.581,2.606,2.606,0,0,0,.336-.846,6.378,6.378,0,0,0,.13-1.134c.013-.447.02-.927.02-1.428s-.007-.982-.02-1.429a6.374,6.374,0,0,0-.13-1.133,2.594,2.594,0,0,0-.336-.846,1.741,1.741,0,0,0-.638-.58,3.549,3.549,0,0,0-1.1-.359A9.828,9.828,0,0,0,7.559.309ZM7.559,8.632H4.218c-.49,0-.913-.015-1.259-.044a3.129,3.129,0,0,1-.88-.185A1.283,1.283,0,0,1,1.5,7.966a1.856,1.856,0,0,1-.282-.718,6.218,6.218,0,0,1-.1-1.035c-.01-.422-.014-.9-.014-1.434s0-1.025.013-1.434A5.9,5.9,0,0,1,1.217,2.31,1.83,1.83,0,0,1,1.5,1.59a1.285,1.285,0,0,1,.576-.435,3.1,3.1,0,0,1,.88-.186C3.294.94,3.718.925,4.218.925H7.559c.5,0,.923.015,1.259.044a3.048,3.048,0,0,1,.877.186,1.3,1.3,0,0,1,.573.435,1.842,1.842,0,0,1,.286.72,6.437,6.437,0,0,1,.1,1.035c.01.386.014.869.014,1.434s0,1.047-.014,1.434a6.437,6.437,0,0,1-.1,1.035,1.831,1.831,0,0,1-.286.719,1.3,1.3,0,0,1-.576.436,3.129,3.129,0,0,1-.88.185C8.466,8.617,8.045,8.632,7.559,8.632Zm-3.341-7.4c-.488,0-.9.015-1.232.043a2.8,2.8,0,0,0-.791.165.986.986,0,0,0-.441.329,1.508,1.508,0,0,0-.234.6,5.827,5.827,0,0,0-.09.981c-.007.392-.011.873-.011,1.428s0,1.033.014,1.427a5.979,5.979,0,0,0,.094.982,1.54,1.54,0,0,0,.23.6.965.965,0,0,0,.438.328,2.8,2.8,0,0,0,.791.166c.34.029.755.043,1.232.043H7.559c.473,0,.885-.015,1.226-.043a2.8,2.8,0,0,0,.791-.166.977.977,0,0,0,.441-.328,1.508,1.508,0,0,0,.234-.6,6,6,0,0,0,.093-.982c.01-.424.014-.9.014-1.427s0-1-.014-1.427a6,6,0,0,0-.093-.982,1.508,1.508,0,0,0-.234-.6.984.984,0,0,0-.439-.329,2.747,2.747,0,0,0-.787-.165c-.33-.029-.744-.043-1.232-.043Z" transform="translate(0.455 0.42)" fill="#27306c"/>
      </g>
    </g>
    <path id="Fill_15" data-name="Fill 15" d="M9.612,2.959a3.25,3.25,0,0,0-.15-1.1,1.165,1.165,0,0,0-.5-.613A2.211,2.211,0,0,0,8.054.982Q7.491.925,6.658.924H4.063q-.74,0-1.245.044a2.922,2.922,0,0,0-.836.176,1.128,1.128,0,0,0-.508.382,1.659,1.659,0,0,0-.26.658,5.939,5.939,0,0,0-.093,1.009q-.012.6-.011,1.431t.014,1.43a6.009,6.009,0,0,0,.1,1.009,1.679,1.679,0,0,0,.257.659,1.107,1.107,0,0,0,.5.381,2.889,2.889,0,0,0,.836.176q.505.043,1.245.044H6.658q.648,0,1.116-.035a4.093,4.093,0,0,0,.8-.127A1.493,1.493,0,0,0,9.1,7.907,1.1,1.1,0,0,0,9.418,7.5a1.94,1.94,0,0,0,.154-.589,7.251,7.251,0,0,0,.04-.807h1.11a6.486,6.486,0,0,1-.07,1,2.675,2.675,0,0,1-.245.8,1.969,1.969,0,0,1-.471.6,2.4,2.4,0,0,1-.746.419,4.921,4.921,0,0,1-1.075.243,11.908,11.908,0,0,1-1.457.078H4.063a9.955,9.955,0,0,1-1.714-.125A3.694,3.694,0,0,1,1.2,8.748a1.921,1.921,0,0,1-.7-.633,2.71,2.71,0,0,1-.359-.9,6.282,6.282,0,0,1-.13-1.162Q0,5.41,0,4.624T.017,3.19a6.292,6.292,0,0,1,.13-1.162,2.7,2.7,0,0,1,.359-.9A1.9,1.9,0,0,1,1.2.5,3.693,3.693,0,0,1,2.349.124,9.966,9.966,0,0,1,4.063,0H6.658A11.908,11.908,0,0,1,8.115.078,5.188,5.188,0,0,1,9.19.315a2.458,2.458,0,0,1,.746.4,1.907,1.907,0,0,1,.471.573,2.41,2.41,0,0,1,.245.745,5.571,5.571,0,0,1,.07.925Z" transform="translate(34.557 1.155)" fill="#27306c"/>
    <path id="Fill_17" data-name="Fill 17" d="M6.813,9.557H4.218A10.208,10.208,0,0,1,2.477,9.43a3.835,3.835,0,0,1-1.2-.393,2.067,2.067,0,0,1-.751-.684,2.886,2.886,0,0,1-.38-.946A6.3,6.3,0,0,1,.018,6.216C.006,5.776,0,5.292,0,4.779s.006-1,.018-1.438A6.3,6.3,0,0,1,.151,2.15,2.886,2.886,0,0,1,.531,1.2,2.067,2.067,0,0,1,1.282.52a3.855,3.855,0,0,1,1.2-.393A10.208,10.208,0,0,1,4.218,0H6.813A12.2,12.2,0,0,1,8.289.079,5.452,5.452,0,0,1,9.4.324a2.606,2.606,0,0,1,.793.428,2.052,2.052,0,0,1,.509.618,2.56,2.56,0,0,1,.261.793,5.8,5.8,0,0,1,.072.95v.154H9.612V3.114a3.116,3.116,0,0,0-.14-1.045,1,1,0,0,0-.432-.534,2.067,2.067,0,0,0-.847-.245c-.367-.038-.831-.057-1.38-.057H4.218c-.484,0-.9.014-1.232.042a2.826,2.826,0,0,0-.791.166.977.977,0,0,0-.441.329,1.508,1.508,0,0,0-.234.6,5.851,5.851,0,0,0-.09.982c-.007.391-.011.872-.011,1.428s0,1.034.014,1.426a6,6,0,0,0,.094.984,1.549,1.549,0,0,0,.23.6.965.965,0,0,0,.438.328,2.826,2.826,0,0,0,.791.166c.333.028.748.042,1.232.042H6.813c.436,0,.807-.012,1.1-.034a3.872,3.872,0,0,0,.768-.122,1.315,1.315,0,0,0,.477-.226.948.948,0,0,0,.271-.351,1.818,1.818,0,0,0,.14-.543,6.949,6.949,0,0,0,.039-.789V6.1h1.419v.154a6.817,6.817,0,0,1-.071,1.027,2.833,2.833,0,0,1-.261.843,2.114,2.114,0,0,1-.509.653,2.552,2.552,0,0,1-.793.446,5.15,5.15,0,0,1-1.109.251A12.2,12.2,0,0,1,6.813,9.557ZM4.218.309A9.871,9.871,0,0,0,2.531.431a3.562,3.562,0,0,0-1.1.358,1.772,1.772,0,0,0-.642.581,2.578,2.578,0,0,0-.338.845A6.222,6.222,0,0,0,.326,3.349C.314,3.8.309,4.28.309,4.779s.006.979.017,1.429A6.224,6.224,0,0,0,.453,7.341a2.578,2.578,0,0,0,.338.845,1.772,1.772,0,0,0,.642.581,3.562,3.562,0,0,0,1.1.358,9.871,9.871,0,0,0,1.687.122H6.813a11.753,11.753,0,0,0,1.438-.077,4.821,4.821,0,0,0,1.04-.234,2.252,2.252,0,0,0,.7-.391,1.832,1.832,0,0,0,.434-.557,2.558,2.558,0,0,0,.231-.752,6.218,6.218,0,0,0,.066-.824h-.8c0,.25-.017.475-.04.669a2.124,2.124,0,0,1-.167.637,1.235,1.235,0,0,1-.358.463,1.633,1.633,0,0,1-.587.283A4.268,4.268,0,0,1,7.94,8.6c-.313.023-.692.035-1.127.035H4.218c-.49,0-.913-.015-1.259-.044a3.065,3.065,0,0,1-.88-.187,1.263,1.263,0,0,1-.573-.435,1.851,1.851,0,0,1-.283-.718,6.131,6.131,0,0,1-.1-1.035c-.01-.407-.015-.889-.015-1.434s0-1.026.013-1.434a5.983,5.983,0,0,1,.094-1.036A1.831,1.831,0,0,1,1.5,1.59a1.28,1.28,0,0,1,.576-.435,3.1,3.1,0,0,1,.88-.186C3.294.94,3.718.925,4.218.925H6.813c.556,0,1.031.02,1.412.058a2.368,2.368,0,0,1,.974.287,1.317,1.317,0,0,1,.563.691,3.154,3.154,0,0,1,.158,1h.8a5.431,5.431,0,0,0-.065-.745,2.275,2.275,0,0,0-.23-.7A1.768,1.768,0,0,0,9.992.99a2.3,2.3,0,0,0-.7-.375A5.023,5.023,0,0,0,8.251.386,11.753,11.753,0,0,0,6.813.309Z" transform="translate(34.402 1)" fill="#27306c"/>
    <path id="Fill_19" data-name="Fill 19" d="M8.323,0H9.988L3.7,4.346l6.474,4.532H8.508L2.6,4.809H1.11V8.878H0V0H1.11V3.884H2.592Z" transform="translate(47.128 1.339)" fill="#27306c"/>
    <path id="Fill_21" data-name="Fill 21" d="M1.418,9.188H0V0H1.418V3.884H2.7L8.43,0h2.207L4.124,4.5l6.69,4.684-2.2,0L2.7,5.118H1.418V9.187Zm-.31-4.379H2.8L8.71,8.878H9.837L3.583,4.5,9.647.309H8.524L2.793,4.193H1.109V.309h-.8V8.878h.8V4.81Z" transform="translate(46.974 1.185)" fill="#27306c"/>
    <path id="Fill_23" data-name="Fill 23" d="M7.4,9.248H4.063a10.121,10.121,0,0,1-1.714-.124A3.711,3.711,0,0,1,1.2,8.748a1.923,1.923,0,0,1-.7-.633,2.741,2.741,0,0,1-.359-.9,6.313,6.313,0,0,1-.13-1.162C.006,5.6,0,5.122,0,4.624S.006,3.643.017,3.19a6.328,6.328,0,0,1,.13-1.161,2.727,2.727,0,0,1,.359-.9A1.9,1.9,0,0,1,1.2.5,3.691,3.691,0,0,1,2.349.124,10.037,10.037,0,0,1,4.063,0H7.4A10.037,10.037,0,0,1,9.118.124,3.7,3.7,0,0,1,10.265.5a1.889,1.889,0,0,1,.694.633,2.743,2.743,0,0,1,.355.9,6.467,6.467,0,0,1,.133,1.161c.013.42.02.9.02,1.435s-.007,1.013-.02,1.433a6.451,6.451,0,0,1-.133,1.162,2.757,2.757,0,0,1-.355.9,1.914,1.914,0,0,1-.694.633,3.715,3.715,0,0,1-1.148.376A10.121,10.121,0,0,1,7.4,9.248ZM4.063.925c-.507,0-.914.014-1.245.043a2.969,2.969,0,0,0-.836.176,1.13,1.13,0,0,0-.508.382,1.631,1.631,0,0,0-.26.659,5.854,5.854,0,0,0-.093,1.008c-.008.388-.012.856-.012,1.431s0,1.04.014,1.43a6.089,6.089,0,0,0,.094,1.009,1.7,1.7,0,0,0,.258.659,1.1,1.1,0,0,0,.5.381,2.932,2.932,0,0,0,.836.177c.336.029.755.043,1.245.043H7.4c.487,0,.9-.015,1.239-.043A2.917,2.917,0,0,0,9.479,8.1a1.128,1.128,0,0,0,.509-.381,1.687,1.687,0,0,0,.26-.659,6.089,6.089,0,0,0,.095-1.009c.01-.409.015-.89.015-1.43s-.005-1.022-.015-1.431a6.045,6.045,0,0,0-.095-1.008,1.676,1.676,0,0,0-.26-.659,1.128,1.128,0,0,0-.506-.382A2.932,2.932,0,0,0,8.649.968C8.32.939,7.912.925,7.4.925Z" transform="translate(61 1.154)" fill="#27306c"/>
    <g id="Group_27" data-name="Group 27" transform="translate(60 0.58)">
      <path id="Clip_26-2" data-name="Clip 26" d="M0,0H11.777V9.557H0Z" transform="translate(0.845 0.42)" fill="none"/>
      <g id="Group_27-2" data-name="Group 27" clip-path="url(#clip-path-3)">
        <path id="Fill_25" data-name="Fill 25" d="M7.559,9.557H4.218A10.125,10.125,0,0,1,2.477,9.43a3.859,3.859,0,0,1-1.2-.392,2.083,2.083,0,0,1-.751-.684,2.9,2.9,0,0,1-.38-.947A6.293,6.293,0,0,1,.018,6.216C.006,5.778,0,5.294,0,4.779s.006-1,.018-1.438a6.274,6.274,0,0,1,.133-1.19A2.9,2.9,0,0,1,.531,1.2,2.073,2.073,0,0,1,1.282.52a3.883,3.883,0,0,1,1.2-.393A10.208,10.208,0,0,1,4.218,0H7.559A10.2,10.2,0,0,1,9.3.127a3.878,3.878,0,0,1,1.2.393,2.041,2.041,0,0,1,.749.685,2.937,2.937,0,0,1,.376.946,6.492,6.492,0,0,1,.136,1.19c.014.43.022.914.022,1.438s-.007,1.008-.022,1.438a6.5,6.5,0,0,1-.136,1.19,2.935,2.935,0,0,1-.376.946,2.051,2.051,0,0,1-.749.685,3.854,3.854,0,0,1-1.2.392A10.119,10.119,0,0,1,7.559,9.557ZM4.218.309A9.871,9.871,0,0,0,2.531.431a3.566,3.566,0,0,0-1.1.359,1.767,1.767,0,0,0-.642.58,2.587,2.587,0,0,0-.337.846A6.208,6.208,0,0,0,.326,3.35C.314,3.8.309,4.28.309,4.779s.006.98.017,1.429A6.224,6.224,0,0,0,.453,7.341a2.578,2.578,0,0,0,.337.845,1.761,1.761,0,0,0,.642.581,3.566,3.566,0,0,0,1.1.359,9.971,9.971,0,0,0,1.687.122H7.559a9.928,9.928,0,0,0,1.686-.122,3.56,3.56,0,0,0,1.1-.359,1.747,1.747,0,0,0,.638-.581,2.606,2.606,0,0,0,.336-.846,6.3,6.3,0,0,0,.129-1.134c.014-.436.021-.916.021-1.428s-.007-.993-.021-1.429a6.3,6.3,0,0,0-.129-1.133,2.612,2.612,0,0,0-.336-.846,1.741,1.741,0,0,0-.638-.58,3.549,3.549,0,0,0-1.1-.359A9.828,9.828,0,0,0,7.559.309ZM7.559,8.632H4.218c-.49,0-.913-.015-1.259-.044a3.129,3.129,0,0,1-.88-.185A1.283,1.283,0,0,1,1.5,7.966a1.856,1.856,0,0,1-.282-.718,6.218,6.218,0,0,1-.1-1.035c-.01-.422-.014-.9-.014-1.434s0-1.025.013-1.434A5.9,5.9,0,0,1,1.217,2.31,1.831,1.831,0,0,1,1.5,1.591a1.281,1.281,0,0,1,.576-.436,3.1,3.1,0,0,1,.88-.186C3.294.94,3.718.925,4.218.925H7.559c.5,0,.923.015,1.259.044a3.048,3.048,0,0,1,.877.186,1.3,1.3,0,0,1,.573.436,1.831,1.831,0,0,1,.286.719,6.437,6.437,0,0,1,.1,1.035c.01.385.014.868.014,1.434s0,1.048-.014,1.434a6.437,6.437,0,0,1-.1,1.035,1.831,1.831,0,0,1-.286.719,1.3,1.3,0,0,1-.577.436,3.114,3.114,0,0,1-.879.185C8.466,8.617,8.045,8.632,7.559,8.632Zm-3.341-7.4c-.488,0-.9.015-1.232.043a2.8,2.8,0,0,0-.791.165.986.986,0,0,0-.441.329,1.508,1.508,0,0,0-.234.6,5.827,5.827,0,0,0-.09.981c-.007.392-.011.873-.011,1.428s0,1.033.014,1.427a5.873,5.873,0,0,0,.094.982,1.54,1.54,0,0,0,.23.6.965.965,0,0,0,.438.328,2.8,2.8,0,0,0,.791.166c.34.029.755.043,1.232.043H7.559c.473,0,.885-.015,1.226-.043a2.8,2.8,0,0,0,.791-.166.977.977,0,0,0,.441-.328,1.508,1.508,0,0,0,.234-.6,6,6,0,0,0,.093-.982c.01-.423.014-.9.014-1.427s0-1-.014-1.427a6,6,0,0,0-.093-.982,1.508,1.508,0,0,0-.234-.6.984.984,0,0,0-.439-.329,2.747,2.747,0,0,0-.787-.165c-.33-.029-.744-.043-1.232-.043Z" transform="translate(0.845 0.42)" fill="#27306c"/>
      </g>
    </g>
    <path id="Fill_28" data-name="Fill 28" d="M5.965,4.069a13.978,13.978,0,0,1,1.566.075,5.619,5.619,0,0,1,1.1.224,2.187,2.187,0,0,1,.714.369,1.6,1.6,0,0,1,.411.5,1.876,1.876,0,0,1,.188.63,6.3,6.3,0,0,1,.043.754,3.793,3.793,0,0,1-.072.757,1.935,1.935,0,0,1-.258.648,1.908,1.908,0,0,1-.5.523,2.939,2.939,0,0,1-.81.392,6.2,6.2,0,0,1-1.182.244,13.559,13.559,0,0,1-1.615.084H4.069a14.368,14.368,0,0,1-1.456-.064,6.223,6.223,0,0,1-1.076-.193,2.632,2.632,0,0,1-.745-.33,1.666,1.666,0,0,1-.471-.468A1.71,1.71,0,0,1,.075,7.6a3.866,3.866,0,0,1-.069-.76h1.11a1.876,1.876,0,0,0,.15.828.952.952,0,0,0,.5.449,2.8,2.8,0,0,0,.91.188q.564.038,1.4.038h1.48a11.577,11.577,0,0,0,1.613-.093,3.153,3.153,0,0,0,1.022-.3,1.184,1.184,0,0,0,.538-.532,1.86,1.86,0,0,0,.156-.8,2.471,2.471,0,0,0-.107-.785.914.914,0,0,0-.422-.5,2.432,2.432,0,0,0-.887-.265,11.541,11.541,0,0,0-1.5-.078H4.439A17.3,17.3,0,0,1,2.7,4.919,7.148,7.148,0,0,1,1.48,4.7a2.575,2.575,0,0,1-.786-.353,1.5,1.5,0,0,1-.448-.482,1.7,1.7,0,0,1-.2-.6A5.221,5.221,0,0,1,0,2.543a3.689,3.689,0,0,1,.072-.751,1.677,1.677,0,0,1,.269-.627,1.886,1.886,0,0,1,.538-.5A3.155,3.155,0,0,1,1.754.3,7.759,7.759,0,0,1,3.04.075Q3.791,0,4.809,0h1.11q.832,0,1.456.061A6.029,6.029,0,0,1,8.45.251,2.809,2.809,0,0,1,9.2.575a1.61,1.61,0,0,1,.474.462,1.763,1.763,0,0,1,.246.61,3.834,3.834,0,0,1,.069.757H8.878a1.826,1.826,0,0,0-.15-.815.949.949,0,0,0-.5-.442A2.866,2.866,0,0,0,7.317.962Q6.752.924,5.919.925H4.809A17.435,17.435,0,0,0,2.983,1a3.871,3.871,0,0,0-1.133.263,1.132,1.132,0,0,0-.578.5,1.682,1.682,0,0,0-.162.78,2.924,2.924,0,0,0,.04.514.937.937,0,0,0,.165.4.961.961,0,0,0,.35.286,2.3,2.3,0,0,0,.6.191,6.594,6.594,0,0,0,.9.107q.534.031,1.274.032Z" transform="translate(73.947 1.154)" fill="#27306c"/>
    <g id="Group_32" data-name="Group 32" transform="translate(73 0.58)">
      <path id="Clip_31-2" data-name="Clip 31" d="M0,0H10.3V9.58H0Z" transform="translate(0.793 0.421)" fill="none"/>
      <g id="Group_32-2" data-name="Group 32" clip-path="url(#clip-path-4)">
        <path id="Fill_30" data-name="Fill 30" d="M5.7,9.58H4.223a14.639,14.639,0,0,1-1.471-.065,6.343,6.343,0,0,1-1.1-.2,2.739,2.739,0,0,1-.788-.35,1.831,1.831,0,0,1-.515-.511,1.872,1.872,0,0,1-.267-.667A3.972,3.972,0,0,1,.006,7V6.843H1.424V7a1.732,1.732,0,0,0,.134.758.8.8,0,0,0,.42.377,2.7,2.7,0,0,0,.859.175c.368.025.834.038,1.385.038H5.7a11.517,11.517,0,0,0,1.59-.091,3.018,3.018,0,0,0,.972-.281,1.026,1.026,0,0,0,.472-.462,1.733,1.733,0,0,0,.14-.734,2.3,2.3,0,0,0-.1-.736.757.757,0,0,0-.354-.418A2.267,2.267,0,0,0,7.6,5.38,11.166,11.166,0,0,0,6.119,5.3H4.593a17.473,17.473,0,0,1-1.758-.076A7.2,7.2,0,0,1,1.591,5a2.733,2.733,0,0,1-.833-.375A1.677,1.677,0,0,1,.265,4.1a1.859,1.859,0,0,1-.217-.659A5.421,5.421,0,0,1,0,2.7a3.9,3.9,0,0,1,.075-.783A1.846,1.846,0,0,1,.369,1.23,2.065,2.065,0,0,1,.949.689,3.339,3.339,0,0,1,1.868.3,7.966,7.966,0,0,1,3.179.076C3.68.025,4.281,0,4.963,0H6.073c.565,0,1.06.021,1.471.061a6.118,6.118,0,0,1,1.1.2A2.948,2.948,0,0,1,9.437.6a1.743,1.743,0,0,1,.518.507,1.9,1.9,0,0,1,.268.664,4,4,0,0,1,.072.787v.154H8.878V2.559a1.681,1.681,0,0,0-.133-.744.8.8,0,0,0-.419-.371,2.743,2.743,0,0,0-.864-.174c-.375-.024-.842-.037-1.388-.037H4.963a17.381,17.381,0,0,0-1.81.077,3.786,3.786,0,0,0-1.086.25.991.991,0,0,0-.5.428,1.534,1.534,0,0,0-.145.709,2.8,2.8,0,0,0,.038.487.79.79,0,0,0,.138.333.821.821,0,0,0,.3.238,2.181,2.181,0,0,0,.556.177,6.464,6.464,0,0,0,.883.1c.354.021.78.031,1.264.031H6.119A14.2,14.2,0,0,1,7.7,4.145a5.778,5.778,0,0,1,1.132.23,2.358,2.358,0,0,1,.764.4,1.752,1.752,0,0,1,.448.551,2.027,2.027,0,0,1,.2.681,6.448,6.448,0,0,1,.044.774,3.988,3.988,0,0,1-.075.787,2.076,2.076,0,0,1-.278.7,2.052,2.052,0,0,1-.544.567,3.079,3.079,0,0,1-.851.413,6.448,6.448,0,0,1-1.212.251A13.928,13.928,0,0,1,5.7,9.58ZM.317,7.152a3.491,3.491,0,0,0,.064.575A1.588,1.588,0,0,0,.6,8.286a1.548,1.548,0,0,0,.429.425,2.483,2.483,0,0,0,.7.309,6.079,6.079,0,0,0,1.048.188,14.346,14.346,0,0,0,1.441.063H5.7a13.488,13.488,0,0,0,1.6-.083,6.173,6.173,0,0,0,1.152-.237,2.849,2.849,0,0,0,.767-.371A1.745,1.745,0,0,0,9.682,8.1a1.808,1.808,0,0,0,.237-.6,3.714,3.714,0,0,0,.069-.726,6.016,6.016,0,0,0-.043-.736,1.7,1.7,0,0,0-.172-.578A1.449,1.449,0,0,0,9.4,5.01a2.042,2.042,0,0,0-.664-.341,5.43,5.43,0,0,0-1.07-.217,13.812,13.812,0,0,0-1.549-.075H4.593c-.491,0-.923-.011-1.282-.031a7.122,7.122,0,0,1-.927-.11,2.558,2.558,0,0,1-.635-.205,1.141,1.141,0,0,1-.4-.332,1.136,1.136,0,0,1-.192-.46A3.172,3.172,0,0,1,1.11,2.7a1.845,1.845,0,0,1,.179-.851,1.288,1.288,0,0,1,.653-.567A4.092,4.092,0,0,1,3.12,1,18.023,18.023,0,0,1,4.963.925H6.073c.566,0,1.04.012,1.409.037a3.048,3.048,0,0,1,.963.2,1.106,1.106,0,0,1,.575.514,1.767,1.767,0,0,1,.163.731h.8a3.336,3.336,0,0,0-.064-.571A1.585,1.585,0,0,0,9.7,1.276,1.45,1.45,0,0,0,9.269.859a2.651,2.651,0,0,0-.707-.3A5.837,5.837,0,0,0,7.515.368C7.1.329,6.612.309,6.073.309H4.963c-.668,0-1.258.025-1.752.075A7.564,7.564,0,0,0,1.95.6a3.01,3.01,0,0,0-.834.347,1.777,1.777,0,0,0-.494.458,1.52,1.52,0,0,0-.244.571,3.536,3.536,0,0,0-.069.72,5.231,5.231,0,0,0,.044.7,1.543,1.543,0,0,0,.181.549,1.359,1.359,0,0,0,.4.433,2.424,2.424,0,0,0,.739.33,7.138,7.138,0,0,0,1.189.212,17.114,17.114,0,0,0,1.727.075H6.119a11.5,11.5,0,0,1,1.518.08,2.588,2.588,0,0,1,.945.284,1.077,1.077,0,0,1,.49.584,2.658,2.658,0,0,1,.115.836,2.023,2.023,0,0,1-.171.866,1.335,1.335,0,0,1-.6.6,3.318,3.318,0,0,1-1.074.313,11.708,11.708,0,0,1-1.634.1H4.223c-.554,0-1.027-.013-1.406-.04a2.969,2.969,0,0,1-.961-.2,1.108,1.108,0,0,1-.574-.521,1.846,1.846,0,0,1-.163-.742h-.8Z" transform="translate(0.793 0.421)" fill="#27306c"/>
      </g>
    </g>
    <path id="Fill_33" data-name="Fill 33" d="M0,8.878V0H8.878V.925H1.11V3.884h7.4v.925H1.11V7.953H8.878v.925Z" transform="translate(88.374 1.339)" fill="#27306c"/>
    <path id="Fill_35" data-name="Fill 35" d="M9.187,9.187H0V0H9.187V1.233H1.419V3.884h7.4V5.118h-7.4V7.953H9.187V9.186ZM.309.309V8.878H8.878V8.262H1.11V4.809h7.4V4.193H1.11V.925H8.878V.309Z" transform="translate(88.219 1.185)" fill="#27306c"/>
    <path id="Fill_37" data-name="Fill 37" d="M6.618,4.2l5.219,4.683H10.265L5.845,4.912,1.572,8.878H0L5.046,4.2.37,0H1.942L5.819,3.478,9.566,0h1.572Z" transform="translate(97.992 1.339)" fill="#27306c"/>
    <path id="Fill_39" data-name="Fill 39" d="M2.026,9.187H0L5.211,4.351.36,0H2.395L6.211,3.423,9.9,0h2.026L7.241,4.348l5.391,4.838-2.032,0L6.241,5.276,2.026,9.187ZM6.237,4.858h0l4.48,4.019h1.11L6.783,4.351,11.138.309H10.02L6.214,3.841,2.277.309H1.167l4.5,4.039L.787,8.878H1.905L6.236,4.859Z" transform="translate(97.598 1.185)" fill="#27306c"/>
    <path id="Fill_41" data-name="Fill 41" d="M9.612,2.959a3.25,3.25,0,0,0-.15-1.1,1.165,1.165,0,0,0-.5-.613A2.206,2.206,0,0,0,8.054.982Q7.491.925,6.658.924H4.063q-.74,0-1.245.044a2.922,2.922,0,0,0-.836.176,1.128,1.128,0,0,0-.508.382,1.659,1.659,0,0,0-.26.658,5.939,5.939,0,0,0-.093,1.009q-.012.6-.011,1.431t.014,1.43a6.128,6.128,0,0,0,.1,1.009,1.694,1.694,0,0,0,.258.659,1.107,1.107,0,0,0,.5.381,2.889,2.889,0,0,0,.836.176q.505.043,1.245.044H6.658q.648,0,1.116-.035a4.093,4.093,0,0,0,.8-.127A1.484,1.484,0,0,0,9.1,7.907,1.1,1.1,0,0,0,9.418,7.5a1.94,1.94,0,0,0,.154-.589,7.251,7.251,0,0,0,.04-.807h1.11a6.486,6.486,0,0,1-.07,1,2.675,2.675,0,0,1-.245.8,1.969,1.969,0,0,1-.471.6,2.4,2.4,0,0,1-.746.419,4.935,4.935,0,0,1-1.075.243,11.908,11.908,0,0,1-1.457.078H4.063A9.935,9.935,0,0,1,2.35,9.123,3.692,3.692,0,0,1,1.2,8.748a1.921,1.921,0,0,1-.7-.633,2.732,2.732,0,0,1-.359-.9,6.282,6.282,0,0,1-.13-1.162Q0,5.41,0,4.624T.017,3.19a6.292,6.292,0,0,1,.13-1.162,2.726,2.726,0,0,1,.359-.9A1.9,1.9,0,0,1,1.2.5,3.691,3.691,0,0,1,2.35.124,9.946,9.946,0,0,1,4.063,0H6.658A11.908,11.908,0,0,1,8.115.078,5.2,5.2,0,0,1,9.19.315a2.458,2.458,0,0,1,.746.4,1.907,1.907,0,0,1,.471.573,2.41,2.41,0,0,1,.245.745,5.571,5.571,0,0,1,.07.925Z" transform="translate(110.939 1.155)" fill="#27306c"/>
    <path id="Fill_43" data-name="Fill 43" d="M6.813,9.557H4.218A10.208,10.208,0,0,1,2.477,9.43a3.835,3.835,0,0,1-1.2-.393,2.067,2.067,0,0,1-.751-.684,2.886,2.886,0,0,1-.38-.946A6.3,6.3,0,0,1,.018,6.216C.006,5.776,0,5.292,0,4.779s.006-1,.018-1.438A6.3,6.3,0,0,1,.151,2.15,2.886,2.886,0,0,1,.531,1.2,2.067,2.067,0,0,1,1.282.52a3.855,3.855,0,0,1,1.2-.393A10.208,10.208,0,0,1,4.218,0H6.813A12.2,12.2,0,0,1,8.289.079,5.452,5.452,0,0,1,9.4.324a2.606,2.606,0,0,1,.793.428,2.052,2.052,0,0,1,.509.618,2.6,2.6,0,0,1,.261.793,5.8,5.8,0,0,1,.072.95v.154H9.612V3.114a3.116,3.116,0,0,0-.14-1.045,1,1,0,0,0-.432-.534,2.067,2.067,0,0,0-.847-.245c-.367-.038-.831-.057-1.38-.057H4.218c-.484,0-.9.014-1.232.042a2.826,2.826,0,0,0-.791.166.977.977,0,0,0-.441.329,1.5,1.5,0,0,0-.234.6,5.851,5.851,0,0,0-.09.982c-.007.391-.011.872-.011,1.428s0,1.033.014,1.426a5.9,5.9,0,0,0,.094.984,1.549,1.549,0,0,0,.23.6.965.965,0,0,0,.438.328,2.826,2.826,0,0,0,.791.166c.333.028.748.042,1.232.042H6.813c.435,0,.807-.012,1.1-.034a3.872,3.872,0,0,0,.768-.122,1.315,1.315,0,0,0,.477-.226.948.948,0,0,0,.271-.351,1.818,1.818,0,0,0,.14-.543,6.949,6.949,0,0,0,.039-.789V6.1h1.419v.154a6.817,6.817,0,0,1-.071,1.027,2.833,2.833,0,0,1-.261.843,2.114,2.114,0,0,1-.509.653,2.552,2.552,0,0,1-.793.446,5.15,5.15,0,0,1-1.109.251A12.2,12.2,0,0,1,6.813,9.557ZM4.218.309A9.871,9.871,0,0,0,2.531.431a3.562,3.562,0,0,0-1.1.358,1.772,1.772,0,0,0-.642.581,2.589,2.589,0,0,0-.338.845A6.059,6.059,0,0,0,.326,3.349C.314,3.8.309,4.28.309,4.779s.006.979.017,1.429A6.058,6.058,0,0,0,.453,7.341a2.589,2.589,0,0,0,.338.845,1.772,1.772,0,0,0,.642.581,3.562,3.562,0,0,0,1.1.358,9.871,9.871,0,0,0,1.687.122H6.813a11.753,11.753,0,0,0,1.438-.077,4.838,4.838,0,0,0,1.04-.234,2.228,2.228,0,0,0,.7-.391,1.821,1.821,0,0,0,.435-.557,2.53,2.53,0,0,0,.23-.752,6.064,6.064,0,0,0,.067-.824h-.8c0,.243-.017.469-.041.67a2.1,2.1,0,0,1-.167.636,1.229,1.229,0,0,1-.359.463,1.62,1.62,0,0,1-.586.283A4.268,4.268,0,0,1,7.94,8.6c-.313.023-.692.035-1.127.035H4.218c-.49,0-.913-.015-1.259-.044a3.065,3.065,0,0,1-.88-.187A1.271,1.271,0,0,1,1.5,7.966a1.865,1.865,0,0,1-.282-.718,6.218,6.218,0,0,1-.1-1.035c-.01-.422-.014-.9-.014-1.434s0-1.026.013-1.434a5.917,5.917,0,0,1,.094-1.036A1.831,1.831,0,0,1,1.5,1.59a1.28,1.28,0,0,1,.576-.435,3.1,3.1,0,0,1,.88-.186C3.294.94,3.718.925,4.218.925H6.813c.556,0,1.031.02,1.412.058a2.37,2.37,0,0,1,.974.287,1.317,1.317,0,0,1,.563.691,3.156,3.156,0,0,1,.158,1h.8a5.431,5.431,0,0,0-.065-.745,2.275,2.275,0,0,0-.23-.7A1.768,1.768,0,0,0,9.992.99a2.293,2.293,0,0,0-.7-.375A5,5,0,0,0,8.251.386,11.753,11.753,0,0,0,6.813.309Z" transform="translate(110.784 1)" fill="#27306c"/>
    <path id="Fill_45" data-name="Fill 45" d="M9.248,0h1.11V8.878H9.248V4.809H1.11V8.878H0V0H1.11V3.884H9.248Z" transform="translate(123.51 1.339)" fill="#27306c"/>
    <path id="Fill_47" data-name="Fill 47" d="M1.419,9.188H0V0H1.419V3.884H9.248V0h1.418V9.186H9.248V5.118H1.419V9.187ZM1.11,4.809H9.557V8.878h.8V.309h-.8V4.193H1.11V.309h-.8V8.878h.8V4.81Z" transform="translate(123.356 1.185)" fill="#27306c"/>
    <path id="Fill_49" data-name="Fill 49" d="M1.285,8.878H0L5.065,0H6.658l5.048,8.876H10.543L9.389,6.844H2.443L1.285,8.878ZM5.922.734,2.97,5.919H8.864Z" transform="translate(135.348 1.339)" fill="#27306c"/>
    <path id="Fill_51" data-name="Fill 51" d="M1.64,9.188H0L5.241,0H7.014l5.224,9.186H10.718L9.564,7.153H2.8L1.64,9.187Zm.979-2.344H9.744L10.9,8.878h.809L6.834.309H5.421L.532,8.878h.929L2.619,6.844ZM9.4,6.228H2.97L6.188.576,9.394,6.227ZM6.188,1.2,3.5,5.919H8.865Z" transform="translate(135.082 1.185)" fill="#27306c"/>
    <path id="Fill_53" data-name="Fill 53" d="M1.11,8.878H0V0H1.948l8.138,7.768V0H11.2V8.878H9.716L1.11.925Z" transform="translate(148.665 1.339)" fill="#27306c"/>
    <path id="Fill_55" data-name="Fill 55" d="M1.419,9.188H0V0H2.164l7.923,7.562V0H11.5V9.186H9.81l-.044-.041L1.419,1.432V9.187ZM1.11.726l0,0,8.819,8.15H11.2V.309h-.8V8.283L2.04.309H.309V8.878h.8V.726Z" transform="translate(148.51 1.185)" fill="#27306c"/>
    <path id="Fill_57" data-name="Fill 57" d="M9.994,2.959a3.25,3.25,0,0,0-.15-1.1,1.165,1.165,0,0,0-.5-.613A2.212,2.212,0,0,0,8.433.982Q7.867.925,7.035.924H4.064q-.741,0-1.246.044a2.922,2.922,0,0,0-.835.176,1.131,1.131,0,0,0-.509.382,1.674,1.674,0,0,0-.26.658,5.848,5.848,0,0,0-.092,1.009q-.012.6-.012,1.431t.015,1.43a6.02,6.02,0,0,0,.1,1.009,1.71,1.71,0,0,0,.257.659,1.11,1.11,0,0,0,.506.381,2.889,2.889,0,0,0,.835.176q.505.043,1.246.044H7.04q.648,0,1.116-.035a4.093,4.093,0,0,0,.8-.127,1.493,1.493,0,0,0,.531-.254A1.1,1.1,0,0,0,9.8,7.5a1.94,1.94,0,0,0,.154-.589,7.251,7.251,0,0,0,.04-.807V5.548H5.543V4.624H11.1V6.1a6.486,6.486,0,0,1-.07,1,2.675,2.675,0,0,1-.245.8,1.969,1.969,0,0,1-.471.6,2.4,2.4,0,0,1-.746.419A4.935,4.935,0,0,1,8.5,9.17a11.908,11.908,0,0,1-1.457.078H4.064A9.939,9.939,0,0,1,2.35,9.123,3.685,3.685,0,0,1,1.2,8.748a1.924,1.924,0,0,1-.7-.633,2.709,2.709,0,0,1-.358-.9,6.2,6.2,0,0,1-.13-1.162Q0,5.41,0,4.624T.018,3.19a6.207,6.207,0,0,1,.13-1.162,2.7,2.7,0,0,1,.358-.9A1.907,1.907,0,0,1,1.2.5,3.684,3.684,0,0,1,2.35.124,9.95,9.95,0,0,1,4.064,0H7.035A11.891,11.891,0,0,1,8.491.078,5.188,5.188,0,0,1,9.566.315a2.5,2.5,0,0,1,.749.4,1.888,1.888,0,0,1,.474.573,2.41,2.41,0,0,1,.245.745,5.571,5.571,0,0,1,.07.925Z" transform="translate(161.71 1.155)" fill="#27306c"/>
    <path id="Fill_59" data-name="Fill 59" d="M7.195,9.557H4.218A10.208,10.208,0,0,1,2.477,9.43a3.835,3.835,0,0,1-1.2-.393,2.067,2.067,0,0,1-.751-.684,2.886,2.886,0,0,1-.38-.946A6.3,6.3,0,0,1,.018,6.216C.006,5.779,0,5.3,0,4.779s.006-1,.018-1.438A6.3,6.3,0,0,1,.151,2.15,2.886,2.886,0,0,1,.531,1.2,2.067,2.067,0,0,1,1.282.52a3.855,3.855,0,0,1,1.2-.393A10.208,10.208,0,0,1,4.218,0H7.189A12.2,12.2,0,0,1,8.665.079,5.471,5.471,0,0,1,9.772.324a2.6,2.6,0,0,1,.795.428,2.034,2.034,0,0,1,.512.618,2.559,2.559,0,0,1,.262.793,5.9,5.9,0,0,1,.071.95v.154H9.994V3.114a3.116,3.116,0,0,0-.14-1.045,1,1,0,0,0-.432-.534,2.072,2.072,0,0,0-.85-.245c-.37-.038-.835-.057-1.382-.057H4.218c-.484,0-.9.014-1.232.042a2.826,2.826,0,0,0-.791.166.977.977,0,0,0-.441.329,1.5,1.5,0,0,0-.234.6,5.819,5.819,0,0,0-.09.982c-.007.392-.011.873-.011,1.428s0,1.033.013,1.426a6,6,0,0,0,.094.984,1.549,1.549,0,0,0,.23.6.965.965,0,0,0,.438.328,2.826,2.826,0,0,0,.791.166c.333.028.748.042,1.232.042H7.195c.435,0,.807-.012,1.1-.034a3.844,3.844,0,0,0,.767-.122,1.31,1.31,0,0,0,.477-.226.937.937,0,0,0,.271-.351,1.816,1.816,0,0,0,.141-.543,6.949,6.949,0,0,0,.039-.789v-.4H5.543V4.624h5.869V6.258a6.817,6.817,0,0,1-.071,1.027,2.8,2.8,0,0,1-.26.843,2.124,2.124,0,0,1-.508.653,2.581,2.581,0,0,1-.794.446,5.166,5.166,0,0,1-1.11.251A12.146,12.146,0,0,1,7.195,9.557ZM4.218.309A9.871,9.871,0,0,0,2.531.431a3.562,3.562,0,0,0-1.1.358,1.772,1.772,0,0,0-.642.581,2.589,2.589,0,0,0-.338.845A6.228,6.228,0,0,0,.326,3.349C.314,3.8.309,4.277.309,4.779s.006.981.017,1.429A6.224,6.224,0,0,0,.453,7.341a2.589,2.589,0,0,0,.338.845,1.772,1.772,0,0,0,.642.581,3.562,3.562,0,0,0,1.1.358,9.871,9.871,0,0,0,1.687.122H7.195a11.723,11.723,0,0,0,1.437-.077,4.812,4.812,0,0,0,1.041-.234,2.236,2.236,0,0,0,.7-.391,1.833,1.833,0,0,0,.435-.557,2.506,2.506,0,0,0,.23-.752,6.425,6.425,0,0,0,.068-.979V4.933H5.852v.617H10.3v.708a7.085,7.085,0,0,1-.042.824,2.154,2.154,0,0,1-.166.637,1.258,1.258,0,0,1-.359.463,1.65,1.65,0,0,1-.586.283,4.308,4.308,0,0,1-.828.131c-.314.023-.693.035-1.128.035H4.218c-.49,0-.913-.015-1.259-.044A3.05,3.05,0,0,1,2.08,8.4a1.261,1.261,0,0,1-.574-.435,1.851,1.851,0,0,1-.283-.718,6.131,6.131,0,0,1-.1-1.035c-.01-.408-.015-.89-.015-1.434s0-1.025.013-1.434a5.983,5.983,0,0,1,.095-1.036A1.831,1.831,0,0,1,1.5,1.59a1.286,1.286,0,0,1,.577-.435A3.082,3.082,0,0,1,2.959.969C3.294.94,3.718.925,4.218.925H7.189c.556,0,1.032.02,1.414.058a2.359,2.359,0,0,1,.976.287,1.323,1.323,0,0,1,.563.691,3.223,3.223,0,0,1,.158,1h.8a5.278,5.278,0,0,0-.067-.745,2.276,2.276,0,0,0-.229-.7,1.725,1.725,0,0,0-.436-.525,2.318,2.318,0,0,0-.7-.376A5.015,5.015,0,0,0,8.626.386,11.714,11.714,0,0,0,7.189.309Z" transform="translate(161.556 1)" fill="#27306c"/>
    <path id="Fill_61" data-name="Fill 61" d="M0,8.878V0H8.878V.925H1.11V3.884h7.4v.925H1.11V7.953H8.878v.925Z" transform="translate(174.663 1.339)" fill="#27306c"/>
    <g id="Group_65" data-name="Group 65" transform="translate(174 0.58)">
      <path id="Clip_64-2" data-name="Clip 64" d="M0,0H9.186V9.187H0Z" transform="translate(0.509 0.605)" fill="none"/>
      <g id="Group_65-2" data-name="Group 65" clip-path="url(#clip-path-5)">
        <path id="Fill_63" data-name="Fill 63" d="M9.187,9.187H0V0H9.187V1.233H1.419V3.884h7.4V5.118h-7.4V7.953H9.187V9.186ZM.309.309V8.878H8.878V8.262H1.11V4.809h7.4V4.193H1.11V.925H8.878V.309Z" transform="translate(0.509 0.605)" fill="#27306c"/>
      </g>
    </g>
  </g>
</svg>
