<svg xmlns="http://www.w3.org/2000/svg" xmlns:xlink="http://www.w3.org/1999/xlink" width="26.869" height="31.822" viewBox="0 0 26.869 31.822">
  <defs>
    <clipPath id="clip-path">
      <path id="Clip_4" data-name="Clip 4" d="M0,0V31.822H18.913a7.955,7.955,0,0,0,7.955-7.956h0V23.2a7.954,7.954,0,0,0-4.772-7.29h0A7.956,7.956,0,0,0,26.869,8.62h0V7.956A7.955,7.955,0,0,0,18.913,0h0" transform="translate(0.161 0.031)" fill="none"/>
    </clipPath>
  </defs>
  <g id="Group_10" data-name="Group 10" transform="translate(-0.161 -0.252)">
    <path id="Fill_1" data-name="Fill 1" d="M26.869,8.62V7.955A7.955,7.955,0,0,0,18.913,0H0V31.821H18.913a7.955,7.955,0,0,0,7.955-7.955V23.2A7.956,7.956,0,0,0,22.1,15.91,7.956,7.956,0,0,0,26.869,8.62" transform="translate(0.161 0.252)" fill="#27306c"/>
    <g id="Group_9" data-name="Group 9" transform="translate(0 0.221)">
      <g id="Group_5" data-name="Group 5">
        <path id="Clip_4-2" data-name="Clip 4" d="M0,0V31.822H18.913a7.955,7.955,0,0,0,7.955-7.956h0V23.2a7.954,7.954,0,0,0-4.772-7.29h0A7.956,7.956,0,0,0,26.869,8.62h0V7.956A7.955,7.955,0,0,0,18.913,0h0" transform="translate(0.161 0.031)" fill="none"/>
        <g id="Group_5-2" data-name="Group 5" clip-path="url(#clip-path)">
          <path id="Fill_3" data-name="Fill 3" d="M4.723,33.464A4.738,4.738,0,0,1,.808,26.078L17,2.085a4.735,4.735,0,0,1,7.85,5.3L8.659,31.376a4.708,4.708,0,0,1-3.023,2A4.773,4.773,0,0,1,4.723,33.464ZM20.93,1.58a3.154,3.154,0,0,0-2.619,1.389L2.119,26.963a3.155,3.155,0,0,0,2.609,4.919,3.2,3.2,0,0,0,.607-.059,3.129,3.129,0,0,0,2.013-1.332L23.54,6.5A3.153,3.153,0,0,0,20.93,1.58Z" transform="translate(-4 8.036)" fill="#fefefe"/>
        </g>
      </g>
      <g id="Group_8" data-name="Group 8">
        <path id="Clip_7-2" data-name="Clip 7" d="M0,0V31.822H18.913a7.955,7.955,0,0,0,7.955-7.956h0V23.2a7.954,7.954,0,0,0-4.772-7.29h0A7.956,7.956,0,0,0,26.869,8.62h0V7.956A7.955,7.955,0,0,0,18.913,0h0" transform="translate(0.161 0.031)" fill="none"/>
        <g id="Group_8-2" data-name="Group 8" clip-path="url(#clip-path)">
          <path id="Fill_6" data-name="Fill 6" d="M4.73,33.464A4.735,4.735,0,0,1,.811,26.081L17,2.088a4.708,4.708,0,0,1,3.022-2A4.8,4.8,0,0,1,20.938,0a4.738,4.738,0,0,1,3.914,7.385L8.662,31.378A4.735,4.735,0,0,1,4.73,33.464ZM20.934,1.58h0a3.2,3.2,0,0,0-.607.059,3.129,3.129,0,0,0-2.013,1.332L2.121,26.966A3.154,3.154,0,0,0,7.35,30.494L23.543,6.5a3.155,3.155,0,0,0-2.609-4.919Z" transform="translate(3.735 -10.721)" fill="#fefefe"/>
        </g>
      </g>
    </g>
  </g>
</svg>
