<svg xmlns="http://www.w3.org/2000/svg" width="37" height="37" viewBox="0 0 37 37">
  <g id="logo_symbol" transform="translate(0.5 0.5)">
    <path id="합치기_1" data-name="합치기 1" d="M2.983,27.926l4.982-2.308,0,.006,17.1-7.924v5.316L12.031,29.1A12.6,12.6,0,0,0,30.3,15.273l4.984-2.309a18,18,0,0,1-32.3,14.962ZM0,18A18,18,0,0,1,33.254,8.442h0l0,0-4.953,2.306-.008-.012-17.11,7.931V13.356L24.443,7.172A12.6,12.6,0,0,0,5.818,21.223L.866,23.528A17.982,17.982,0,0,1,0,18Z" fill="#2842fc" stroke="rgba(0,0,0,0)" stroke-miterlimit="10" stroke-width="1"/>
  </g>
</svg>
