<?xml version="1.0" encoding="utf-8"?>
<!-- Generator: Adobe Illustrator 24.0.2, SVG Export Plug-In . SVG Version: 6.00 Build 0)  -->
<svg version="1.1" id="Layer_1" xmlns="http://www.w3.org/2000/svg" xmlns:xlink="http://www.w3.org/1999/xlink" x="0px" y="0px"
	 viewBox="0 0 220 32" style="enable-background:new 0 0 220 32;" xml:space="preserve">
<style type="text/css">
	.st0{fill:#FBBA00;}
	.st1{fill:#005CA9;}
</style>
<g>
	<g>
		<g>
			<g>
				<g>
					<polygon class="st0" points="22.33,0.27 16.17,3.36 10.02,0.27 16.17,11.97 					"/>
					<path class="st0" d="M24.48,9.31l-0.09-0.08l4.39-1.85V1.21l-7.63,3.25c0,0-4.13,7.83-4.23,8.01c3.24,0.39,5.67,3.1,5.67,6.37
						c0,3.54-2.88,6.42-6.42,6.42c-3.54,0-6.42-2.88-6.42-6.42c0-3.27,2.43-5.98,5.67-6.37c-0.09-0.18-4.22-8.01-4.22-8.01
						L3.57,1.21v6.18l4.39,1.85l-0.1,0.08c-2.75,2.41-4.33,5.88-4.33,9.53c0,6.97,5.67,12.64,12.63,12.64
						c6.97,0,12.64-5.67,12.64-12.64C28.81,15.2,27.23,11.72,24.48,9.31z"/>
				</g>
			</g>
		</g>
	</g>
	<g>
		<path class="st1" d="M187.23,19.06h-26.67l-1.15-1.79h27.83c0.29,0,0.35,0.35,0.35,0.9C187.59,18.7,187.52,19.06,187.23,19.06z
			 M173.82,14.89c-6.92,0-12.17-1.76-12.17-5.44c0-3.68,5.25-5.44,12.17-5.44c6.92,0,12.17,1.76,12.17,5.44
			C185.99,13.13,180.73,14.89,173.82,14.89z M186.27,28.34h-22.71c-1.06,0-1.92-0.86-1.92-1.92v-5.76h3.2
			c0.51,0,0.96,0.45,0.96,0.96v3.97c0,0.51,0.45,0.96,0.96,0.96h19.5c0.29,0,0.35,0.35,0.35,0.9
			C186.63,27.99,186.56,28.34,186.27,28.34z M173.82,5.8c-4.55,0-7.88,1.12-7.88,3.65c0,2.53,3.33,3.65,7.88,3.65
			c4.55,0,7.88-1.12,7.88-3.65C181.69,6.92,178.36,5.8,173.82,5.8z"/>
		<g>
			<path class="st1" d="M216.08,21.12h-4.9c1.13,0.64,1.77,1.54,1.77,2.77c0,2.71-3.22,3.88-7.6,3.88c-4.38,0-7.6-1.17-7.6-3.88
				c0-2.71,3.22-3.91,7.6-3.91h7.84h4v-1.61V4.97c0-0.51-0.45-0.96-0.96-0.96h-3.04v5.12h-2.24V4.97c0-0.51-0.45-0.96-0.96-0.96
				h-3.04v13.13h4v-6.09h2.24v7.31h-7.84c-6.9,0-12.08,1.89-12.08,5.58c0,3.69,5.18,5.58,12.08,5.58c6.89,0,12.08-1.89,12.08-5.58
				C217.44,22.82,216.95,21.87,216.08,21.12z"/>
			<path class="st1" d="M205.38,11.48c0-1.08-0.34-2.07-0.97-2.93h-4.04c0.71,0.77,0.96,1.79,0.96,2.9c0,1.91-0.84,3.94-3.2,3.94
				c-1.95,0-3.25-1.91-3.25-3.94c0-2.16,1.18-4.07,3.22-4.07h7.75c0.24,0,0.29-0.46,0.29-0.94c0-0.48-0.05-0.84-0.29-0.84h-5.7V4.09
				c0-0.46-0.37-0.85-0.79-0.85h-3.49v2.37h-6.23l0.94,1.78h2.36c-1.31,1.02-1.97,2.47-1.97,4.09c0,3.16,2.84,5.69,7.16,5.69
				C202.42,17.16,205.38,14.63,205.38,11.48z"/>
		</g>
		<path class="st1" d="M119.16,19.37c1.21,0.77,1.93,1.88,1.93,3.37c0,3.25-3.5,4.74-7.83,4.74c-4.33,0-7.82-1.49-7.82-4.74
			c0-3.25,3.45-4.73,7.82-4.73l-0.06-0.01h13.02c0.18,0,0.32-0.14,0.34-0.36c0.01-0.1,0.08-0.65,0-1.1
			c-0.04-0.19-0.16-0.31-0.34-0.31h-10.93v-3.38h10.4c0.18,0,0.32-0.14,0.34-0.35c0.01-0.1,0.08-0.66-0.01-1.11
			c-0.04-0.19-0.17-0.3-0.35-0.3h-19.72c-0.55,0-1.01-0.44-1.01-0.97V5.32c0-0.54-0.46-0.97-1.01-0.97h-3.1v6.69
			c0,1,0.85,1.82,1.91,1.82h8.41v3.38H99.12l1.17,1.77h3.6c-1.58,1.08-2.53,2.59-2.53,4.53c0,4.63,5.34,6.74,11.91,6.74
			c6.58,0,11.92-2.11,11.92-6.74c0-1.23-0.38-2.28-1.06-3.16H119.16z"/>
		<path class="st1" d="M141.77,8.56c0.22,0.24,0.4,0.5,0.56,0.79c0.35,0.63,0.57,1.36,0.57,2.13c0,2.4-1.73,4.33-4.27,4.33
			c-2.55,0-4.27-1.94-4.27-4.33c0-2.37,1.83-4.3,4.22-4.33h9.19c0.17,0,0.32-0.15,0.34-0.36c0.01-0.1,0.09-0.67,0-1.13
			c-0.04-0.19-0.17-0.31-0.35-0.31h-7.02V4.4c0-0.54-0.46-0.98-1.04-0.98h-3.18c0,0.16,0,1.95,0,1.95h-7.99
			c0.16,0.23,1.15,1.73,1.19,1.8h3.01c-1.54,1.1-2.5,2.63-2.5,4.33c0,3.36,3.38,6.08,8.39,6.08c3.37,0,5.84-1.23,7.29-3.07h5.81
			v6.59h-15.44v-1.84c0-0.55-0.46-0.99-1.04-0.99h-3.17v8.21c0,1.02,0.89,1.86,1.96,1.86h21.92V4.89c0-0.55-0.47-0.99-1.04-0.99
			h-3.2v4.67H141.77z M151.72,26.54h-14.87c-0.31,0-0.57-0.24-0.57-0.55V22.9h15.44V26.54z M151.72,12.7h-4.89
			c0.11-0.38,0.17-0.8,0.17-1.21c0-0.38-0.05-0.75-0.14-1.12h4.86V12.7z"/>
		<path class="st1" d="M93.35,4.51h-3.69v9.52c-2.39,0-12.75,0-15.08,0V4.51h-3.69c-0.87,0-1.58,0.84-1.58,1.88v20.13
			c0,1.03,0.71,1.88,1.58,1.88h3.69V18.17c2.33,0,12.69,0,15.08,0V28.4h3.69c0.88,0,1.59-0.85,1.59-1.88V6.39
			C94.93,5.35,94.23,4.51,93.35,4.51z"/>
		<path class="st1" d="M63.16,4.51h-3.69V22.8L48.37,8.19c-1.84-2.13-3.11-3.68-6.06-3.68h-3.76v22.01c0,1.03,0.71,1.88,1.59,1.88
			h3.69V10.02l11.16,14.51c1.89,2.18,3.56,3.87,6.3,3.87h3.45V6.39C64.74,5.35,64.03,4.51,63.16,4.51z"/>
	</g>
</g>
</svg>
