<svg xmlns="http://www.w3.org/2000/svg" width="30" height="30" viewBox="0 0 30 30">
    <g data-name="Group 57">
        <path data-name="Path 12" d="M47.653 27.073a10.482 10.482 0 0 0-3.488-3.267l2.9.052a1.014 1.014 0 0 0 1.046-1.01A1.028 1.028 0 0 0 47.1 21.8l-6.207-.11a1.091 1.091 0 0 0-.853.43 1.028 1.028 0 0 0-.132.946l2.109 5.86a1.028 1.028 0 0 0 .966.68 1.039 1.039 0 0 0 .348-.061 1.027 1.027 0 0 0 .619-1.315l-.991-2.755a8.508 8.508 0 1 1-6.277-.762 1.028 1.028 0 0 0-.527-1.987 10.572 10.572 0 0 0 .645 20.59 10.671 10.671 0 0 0 2.081.206 10.575 10.575 0 0 0 8.767-16.449z" transform="translate(-24.297 -17.692)" style="fill:#333"/>
    </g>
</svg>
