<svg xmlns="http://www.w3.org/2000/svg" width="21.001" height="13.5" viewBox="0 0 21.001 13.5">
    <defs>
        <style>
            .cls-1{fill:#7a7a7a}
        </style>
    </defs>
    <g id="Icon_ionic-ios-eye" transform="translate(-1.501 -5.25)">
        <path id="패스_7289" d="M11.991 5.25C8.222 5.25 5.25 7.622 1.7 11.5a.741.741 0 0 0 0 1c3.042 3.361 5.723 6.253 10.3 6.253 4.519 0 7.908-3.642 10.317-6.281a.735.735 0 0 0 .023-.97c-2.465-2.98-5.863-6.252-10.349-6.252zm.209 10.964a4.219 4.219 0 1 1 4.014-4.014 4.22 4.22 0 0 1-4.014 4.014z" class="cls-1"/>
        <path id="패스_7290" d="M12 9.8a2.2 2.2 0 0 1 .145-.8H12a3 3 0 1 0 3 3v-.183a2.079 2.079 0 0 1-.853.183A2.176 2.176 0 0 1 12 9.8z" class="cls-1"/>
    </g>
</svg>
