<svg xmlns="http://www.w3.org/2000/svg" width="20.997" height="18.001" viewBox="0 0 20.997 18.001">
    <defs>
        <style>
            .cls-1{fill:#7a7a7a}
        </style>
    </defs>
    <g id="Icon_ionic-ios-eye-off" transform="translate(-1.501 -2.999)">
        <path id="패스_7291" d="M4.139 3.192a.666.666 0 0 0-.942.942l16.664 16.674a.661.661 0 0 0 .642.169.649.649 0 0 0 .3-.173.665.665 0 0 0 0-.937z" class="cls-1"/>
        <g id="그룹_321">
            <path id="패스_7292" d="M12.2 16.214A4.215 4.215 0 0 1 8.189 10.2l-2.5-2.508A32.88 32.88 0 0 0 1.7 11.5a.741.741 0 0 0 0 1c3.042 3.361 5.723 6.253 10.3 6.253a9.026 9.026 0 0 0 3.858-.9l-2.039-2.039a4.259 4.259 0 0 1-1.619.4z" class="cls-1"/>
            <path id="패스_7293" d="M22.3 12.469a.735.735 0 0 0 .023-.97C19.875 8.522 16.477 5.25 11.991 5.25a8.775 8.775 0 0 0-3.844.891L10.2 8.189a4.13 4.13 0 0 1 1.608-.4 4.215 4.215 0 0 1 4.003 6.011l2.508 2.508a31.006 31.006 0 0 0 3.981-3.839z" class="cls-1"/>
            <path id="패스_7294" d="M9.009 12.23a3.012 3.012 0 0 0 2.761 2.761 2.93 2.93 0 0 0 1.1-.122l-3.743-3.741a3.066 3.066 0 0 0-.118 1.102z" class="cls-1"/>
            <path id="패스_7295" d="M15 12v-.183a2.079 2.079 0 0 1-.853.183h-.145l.872.877A3 3 0 0 0 15 12z" class="cls-1"/>
            <path id="패스_7296" d="M12 9.8a2.2 2.2 0 0 1 .145-.8H12a2.966 2.966 0 0 0-.867.131l.877.877C12 9.938 12 9.867 12 9.8z" class="cls-1"/>
        </g>
    </g>
</svg>
