<?xml version="1.0" encoding="utf-8"?>
<!-- Generator: Adobe Illustrator 24.0.2, SVG Export Plug-In . SVG Version: 6.00 Build 0)  -->
<svg version="1.1" id="Layer_1" xmlns="http://www.w3.org/2000/svg" xmlns:xlink="http://www.w3.org/1999/xlink" x="0px" y="0px"
	 viewBox="0 0 20 20" style="enable-background:new 0 0 20 20;" xml:space="preserve">
<style type="text/css">
	.st0{fill:#FFFFFF;}
	.st1{fill:#237045;}
	.st2{fill-rule:evenodd;clip-rule:evenodd;fill:#237045;}
</style>
<g>
	<g id="_48_2_">
		<rect x="10" y="3.92" class="st0" width="7.7" height="11.76"/>
		<path class="st1" d="M17.7,3.92v11.76H10V3.92H17.7 M17.7,3.11H10c-0.45,0-0.81,0.36-0.81,0.81v11.76c0,0.45,0.36,0.81,0.81,0.81
			h7.7c0.45,0,0.81-0.36,0.81-0.81V3.92C18.51,3.47,18.15,3.11,17.7,3.11z"/>
		<rect x="13.65" y="5.14" class="st1" width="2.84" height="1.22"/>
		<rect x="13.65" y="7.16" class="st1" width="2.84" height="1.22"/>
		<rect x="13.65" y="9.19" class="st1" width="2.84" height="1.22"/>
		<rect x="13.65" y="11.22" class="st1" width="2.84" height="1.22"/>
		<rect x="13.65" y="13.24" class="st1" width="2.84" height="1.22"/>
		<rect x="10" y="5.14" class="st1" width="2.84" height="1.22"/>
		<rect x="10" y="7.16" class="st1" width="2.84" height="1.22"/>
		<rect x="10" y="9.19" class="st1" width="2.84" height="1.22"/>
		<rect x="10" y="11.22" class="st1" width="2.84" height="1.22"/>
		<rect x="10" y="13.24" class="st1" width="2.84" height="1.22"/>
		<path class="st2" d="M11.62,1.49L1.49,3.26v13.48l10.13,1.78V1.49z"/>
		<path class="st0" d="M8.73,6.35L7.31,6.44L6.45,8.46L6.39,8.65L6.35,8.78L6.31,8.92L6.29,9.03l0,0c0-0.05-0.01-0.11-0.04-0.15
			L6.21,8.73L6.17,8.6L6.13,8.48L5.39,6.55L4.02,6.64l1.46,3.15l-1.61,3.15l1.33,0.08l0.9-2.07l0.04-0.14l0.03-0.13l0.03-0.11V10.5
			l0,0l0.03,0.15l0.03,0.13l0.02,0.1l0.02,0.07l0.93,2.21l1.55,0.1L7.04,9.77L8.73,6.35"/>
	</g>
</g>
</svg>
