<svg xmlns="http://www.w3.org/2000/svg" width="24" height="16" viewBox="0 0 24 16">
  <g id="그룹_13" data-name="그룹 13" transform="translate(259.218 80.423)">
    <rect id="사각형_16" data-name="사각형 16" width="24" height="16" transform="translate(-259.218 -80.423)" fill="#fff"/>
    <g id="그룹_12" data-name="그룹 12" transform="translate(-255.425 -78.721)">
      <path id="패스_8" data-name="패스 8" d="M-219.439-62.366a3.916,3.916,0,0,0-3.636,2.463c0,.008,0,.015,0,.023a2.13,2.13,0,0,0,.318,1.588,1.886,1.886,0,0,0,1.456.735,2.5,2.5,0,0,0,1.568-.534c.314-.239.581-.54.912-.754a2.184,2.184,0,0,1,1.274-.347,1.661,1.661,0,0,1,.77.211,1.807,1.807,0,0,1,.792,1.278,4.134,4.134,0,0,1,.011,1.093,3.9,3.9,0,0,0,.458-1.839A3.916,3.916,0,0,0-219.439-62.366Z" transform="translate(227.522 64.734)" fill="#cd2e3a"/>
      <g id="그룹_11" data-name="그룹 11" transform="translate(0 0)">
        <path id="패스_9" data-name="패스 9" d="M-216.788-49.578a1.807,1.807,0,0,0-.791-1.278,1.661,1.661,0,0,0-.77-.211,2.184,2.184,0,0,0-1.274.347c-.331.215-.6.515-.912.754a2.5,2.5,0,0,1-1.568.534,1.886,1.886,0,0,1-1.456-.735,2.13,2.13,0,0,1-.318-1.588c0-.007,0-.015,0-.023a3.9,3.9,0,0,0-.28,1.454,3.916,3.916,0,0,0,3.916,3.916,3.915,3.915,0,0,0,3.458-2.077A4.134,4.134,0,0,0-216.788-49.578Z" transform="translate(228.319 56.608)" fill="#0047a0"/>
        <rect id="사각형_17" data-name="사각형 17" width="3.843" height="0.64" transform="matrix(0.565, -0.825, 0.825, 0.565, 1.366, 4.106)"/>
        <rect id="사각형_18" data-name="사각형 18" width="3.843" height="0.64" transform="translate(0.683 3.638) rotate(-55.587)"/>
        <rect id="사각형_19" data-name="사각형 19" width="3.843" height="0.64" transform="matrix(0.565, -0.825, 0.825, 0.565, 0, 3.17)"/>
        <rect id="사각형_20" data-name="사각형 20" width="1.759" height="0.64" transform="translate(13.365 12.072) rotate(-55.588)"/>
        <rect id="사각형_21" data-name="사각형 21" width="1.759" height="0.64" transform="matrix(0.565, -0.825, 0.825, 0.565, 12.682, 11.605)"/>
        <rect id="사각형_22" data-name="사각형 22" width="1.759" height="0.64" transform="translate(11.999 11.137) rotate(-55.587)"/>
        <rect id="사각형_23" data-name="사각형 23" width="1.759" height="0.64" transform="matrix(0.565, -0.825, 0.825, 0.565, 14.596, 10.259)"/>
        <rect id="사각형_24" data-name="사각형 24" width="1.759" height="0.64" transform="matrix(0.565, -0.825, 0.825, 0.565, 13.914, 9.792)"/>
        <rect id="사각형_25" data-name="사각형 25" width="1.759" height="0.64" transform="translate(13.231 9.324) rotate(-55.588)"/>
        <rect id="사각형_26" data-name="사각형 26" width="3.843" height="0.64" transform="translate(3.447 11.447) rotate(-121.549)"/>
        <rect id="사각형_27" data-name="사각형 27" width="1.566" height="0.64" transform="translate(2.742 11.88) rotate(-121.549)"/>
        <rect id="사각형_28" data-name="사각형 28" width="1.949" height="0.64" transform="translate(1.751 10.267) rotate(-121.549)"/>
        <rect id="사각형_29" data-name="사각형 29" width="3.843" height="0.64" transform="matrix(-0.523, -0.852, 0.852, -0.523, 2.037, 12.313)"/>
        <rect id="사각형_30" data-name="사각형 30" width="1.759" height="0.64" transform="translate(15.611 3.734) rotate(-121.549)"/>
        <rect id="사각형_31" data-name="사각형 31" width="1.759" height="0.64" transform="matrix(-0.523, -0.852, 0.852, -0.523, 14.2, 4.6)"/>
        <rect id="사각형_32" data-name="사각형 32" width="1.759" height="0.64" transform="matrix(-0.523, -0.852, 0.852, -0.523, 14.457, 1.871)"/>
        <rect id="사각형_33" data-name="사각형 33" width="3.951" height="0.64" transform="translate(14.898 4.171) rotate(-121.549)"/>
        <rect id="사각형_34" data-name="사각형 34" width="1.759" height="0.64" transform="matrix(-0.523, -0.852, 0.852, -0.523, 13.046, 2.737)"/>
      </g>
    </g>
  </g>
</svg>
