<svg xmlns="http://www.w3.org/2000/svg" width="24" height="16" viewBox="0 0 24 16">
  <g id="language_en" transform="translate(-16.347 -71.548)">
    <rect id="사각형_68" data-name="사각형 68" width="24" height="1.231" transform="translate(16.347 72.779)" fill="#fff"/>
    <rect id="사각형_69" data-name="사각형 69" width="24" height="1.231" transform="translate(16.347 75.24)" fill="#fff"/>
    <rect id="사각형_70" data-name="사각형 70" width="24" height="1.231" transform="translate(16.347 77.702)" fill="#fff"/>
    <rect id="사각형_71" data-name="사각형 71" width="24" height="1.231" transform="translate(16.347 80.163)" fill="#fff"/>
    <rect id="사각형_72" data-name="사각형 72" width="24" height="1.231" transform="translate(16.347 82.625)" fill="#fff"/>
    <rect id="사각형_73" data-name="사각형 73" width="24" height="1.231" transform="translate(16.347 85.086)" fill="#fff"/>
    <rect id="사각형_74" data-name="사각형 74" width="24" height="1.231" transform="translate(16.347 71.548)" fill="#b22234"/>
    <rect id="사각형_75" data-name="사각형 75" width="24" height="1.231" transform="translate(16.347 74.009)" fill="#b22234"/>
    <rect id="사각형_76" data-name="사각형 76" width="24" height="1.231" transform="translate(16.347 76.471)" fill="#b22234"/>
    <rect id="사각형_77" data-name="사각형 77" width="24" height="1.231" transform="translate(16.347 78.932)" fill="#b22234"/>
    <rect id="사각형_78" data-name="사각형 78" width="24" height="1.231" transform="translate(16.347 81.394)" fill="#b22234"/>
    <rect id="사각형_79" data-name="사각형 79" width="24" height="1.231" transform="translate(16.347 83.856)" fill="#b22234"/>
    <rect id="사각형_80" data-name="사각형 80" width="24" height="1.231" transform="translate(16.347 86.317)" fill="#b22234"/>
    <path id="패스_51" data-name="패스 51" d="M16.347,71.548v8.615h11.44V71.548Z" fill="#3c3b6e"/>
    <g id="그룹_91" data-name="그룹 91" transform="translate(16.569 71.897)">
      <path id="패스_52" data-name="패스 52" d="M22.065,79.8l.112.345h.363l-.294.214.112.345-.294-.213-.294.213.112-.345-.294-.214h.363Z" transform="translate(-21.59 -79.796)" fill="#fff"/>
      <path id="패스_53" data-name="패스 53" d="M69.693,79.8l.112.345h.363l-.294.214.112.345-.294-.213L69.4,80.7l.112-.345-.294-.214h.363Z" transform="translate(-67.201 -79.796)" fill="#fff"/>
      <path id="패스_54" data-name="패스 54" d="M45.675,100.143l.112.345h.363l-.294.213.112.345-.294-.213-.294.213.112-.345-.294-.213h.363Z" transform="translate(-44.2 -99.281)" fill="#fff"/>
      <path id="패스_55" data-name="패스 55" d="M93.528,100.143l.112.345H94l-.294.213.112.345-.294-.213-.294.213.112-.345-.294-.213h.363Z" transform="translate(-90.027 -99.281)" fill="#fff"/>
      <path id="패스_56" data-name="패스 56" d="M140.706,100.143l.112.345h.363l-.294.213.112.345-.294-.213-.294.213.112-.345-.294-.213h.363Z" transform="translate(-135.208 -99.281)" fill="#fff"/>
      <path id="패스_57" data-name="패스 57" d="M188.333,100.143l.112.345h.363l-.294.213.112.345-.294-.213-.294.213.112-.345-.294-.213h.363Z" transform="translate(-180.818 -99.281)" fill="#fff"/>
      <path id="패스_58" data-name="패스 58" d="M235.739,100.143l.112.345h.363l-.294.213.112.345-.294-.213-.294.213.112-.345-.294-.213h.363Z" transform="translate(-226.218 -99.281)" fill="#fff"/>
      <path id="패스_59" data-name="패스 59" d="M45.675,140.836l.112.345h.363l-.294.213.112.345-.294-.213-.294.213.112-.345-.294-.213h.363Z" transform="translate(-44.2 -138.252)" fill="#fff"/>
      <path id="패스_60" data-name="패스 60" d="M93.528,140.836l.112.345H94l-.294.213.112.345-.294-.213-.294.213.112-.345-.294-.213h.363Z" transform="translate(-90.027 -138.252)" fill="#fff"/>
      <path id="패스_61" data-name="패스 61" d="M140.706,140.836l.112.345h.363l-.294.213.112.345-.294-.213-.294.213.112-.345-.294-.213h.363Z" transform="translate(-135.208 -138.252)" fill="#fff"/>
      <path id="패스_62" data-name="패스 62" d="M188.333,140.836l.112.345h.363l-.294.213.112.345-.294-.213-.294.213.112-.345-.294-.213h.363Z" transform="translate(-180.818 -138.252)" fill="#fff"/>
      <path id="패스_63" data-name="패스 63" d="M235.739,140.836l.112.345h.363l-.294.213.112.345-.294-.213-.294.213.112-.345-.294-.213h.363Z" transform="translate(-226.218 -138.252)" fill="#fff"/>
      <path id="패스_64" data-name="패스 64" d="M45.675,181.714l.112.345h.363l-.294.214.112.345-.294-.213-.294.213.112-.345-.294-.214h.363Z" transform="translate(-44.2 -177.399)" fill="#fff"/>
      <path id="패스_65" data-name="패스 65" d="M93.528,181.714l.112.345H94l-.294.214.112.345-.294-.213-.294.213.112-.345-.294-.214h.363Z" transform="translate(-90.027 -177.399)" fill="#fff"/>
      <path id="패스_66" data-name="패스 66" d="M140.706,181.714l.112.345h.363l-.294.214.112.345-.294-.213-.294.213.112-.345-.294-.214h.363Z" transform="translate(-135.208 -177.399)" fill="#fff"/>
      <path id="패스_67" data-name="패스 67" d="M188.333,181.714l.112.345h.363l-.294.214.112.345-.294-.213-.294.213.112-.345-.294-.214h.363Z" transform="translate(-180.818 -177.399)" fill="#fff"/>
      <path id="패스_68" data-name="패스 68" d="M235.739,181.714l.112.345h.363l-.294.214.112.345-.294-.213-.294.213.112-.345-.294-.214h.363Z" transform="translate(-226.218 -177.399)" fill="#fff"/>
      <path id="패스_69" data-name="패스 69" d="M45.675,222.1l.112.345h.363l-.294.213.112.345-.294-.213-.294.213.112-.345-.294-.213h.363Z" transform="translate(-44.2 -216.072)" fill="#fff"/>
      <path id="패스_70" data-name="패스 70" d="M93.528,222.1l.112.345H94l-.294.213.112.345-.294-.213-.294.213.112-.345-.294-.213h.363Z" transform="translate(-90.027 -216.072)" fill="#fff"/>
      <path id="패스_71" data-name="패스 71" d="M140.706,222.1l.112.345h.363l-.294.213L141,223l-.294-.213-.294.213.112-.345-.294-.213h.363Z" transform="translate(-135.208 -216.072)" fill="#fff"/>
      <path id="패스_72" data-name="패스 72" d="M188.333,222.1l.112.345h.363l-.294.213.112.345-.294-.213-.294.213.112-.345-.294-.213h.363Z" transform="translate(-180.818 -216.072)" fill="#fff"/>
      <path id="패스_73" data-name="패스 73" d="M235.739,222.1l.112.345h.363l-.294.213.112.345-.294-.213-.294.213.112-.345-.294-.213h.363Z" transform="translate(-226.218 -216.072)" fill="#fff"/>
      <path id="패스_74" data-name="패스 74" d="M116.964,79.8l.112.345h.363l-.294.214.112.345-.294-.213-.294.213.112-.345-.294-.214h.363Z" transform="translate(-112.471 -79.796)" fill="#fff"/>
      <path id="패스_75" data-name="패스 75" d="M164.591,79.8l.112.345h.363l-.294.214.112.345-.294-.213-.294.213.112-.345-.294-.214h.363Z" transform="translate(-158.082 -79.796)" fill="#fff"/>
      <path id="패스_76" data-name="패스 76" d="M211.9,79.8l.112.345h.363l-.294.214.112.345-.294-.213-.294.213.112-.345-.294-.214h.363Z" transform="translate(-203.393 -79.796)" fill="#fff"/>
      <path id="패스_77" data-name="패스 77" d="M259.311,79.8l.112.345h.363l-.294.214.112.345-.294-.213-.294.213.112-.345-.294-.214h.363Z" transform="translate(-248.792 -79.796)" fill="#fff"/>
      <path id="패스_78" data-name="패스 78" d="M22.065,120.447l.112.345h.363l-.294.213.112.346-.294-.213-.294.213.112-.346-.294-.213h.363Z" transform="translate(-21.59 -118.726)" fill="#fff"/>
      <path id="패스_79" data-name="패스 79" d="M69.693,120.447l.112.345h.363l-.294.213.112.346-.294-.213-.294.213.112-.346-.294-.213h.363Z" transform="translate(-67.201 -118.726)" fill="#fff"/>
      <path id="패스_80" data-name="패스 80" d="M116.964,120.447l.112.345h.363l-.294.213.112.346-.294-.213-.294.213.112-.346-.294-.213h.363Z" transform="translate(-112.471 -118.726)" fill="#fff"/>
      <path id="패스_81" data-name="패스 81" d="M164.591,120.447l.112.345h.363l-.294.213.112.346-.294-.213-.294.213.112-.346-.294-.213h.363Z" transform="translate(-158.082 -118.726)" fill="#fff"/>
      <path id="패스_82" data-name="패스 82" d="M211.9,120.447l.112.345h.363l-.294.213.112.346-.294-.213-.294.213.112-.346-.294-.213h.363Z" transform="translate(-203.393 -118.726)" fill="#fff"/>
      <path id="패스_83" data-name="패스 83" d="M259.311,120.447l.112.345h.363l-.294.213.112.346-.294-.213-.294.213.112-.346-.294-.213h.363Z" transform="translate(-248.792 -118.726)" fill="#fff"/>
      <path id="패스_84" data-name="패스 84" d="M22.065,161.363l.112.345h.363l-.294.214.112.345-.294-.214-.294.214.112-.345-.294-.214h.363Z" transform="translate(-21.59 -157.91)" fill="#fff"/>
      <path id="패스_85" data-name="패스 85" d="M69.693,161.363l.112.345h.363l-.294.214.112.345-.294-.214-.294.214.112-.345-.294-.214h.363Z" transform="translate(-67.201 -157.91)" fill="#fff"/>
      <path id="패스_86" data-name="패스 86" d="M116.964,161.363l.112.345h.363l-.294.214.112.345-.294-.214-.294.214.112-.345-.294-.214h.363Z" transform="translate(-112.471 -157.91)" fill="#fff"/>
      <path id="패스_87" data-name="패스 87" d="M164.591,161.363l.113.345h.363l-.294.214.112.345-.294-.214-.294.214.112-.345-.294-.214h.363Z" transform="translate(-158.082 -157.91)" fill="#fff"/>
      <path id="패스_88" data-name="패스 88" d="M211.9,161.363l.112.345h.363l-.294.214.112.345-.294-.214-.294.214.112-.345-.294-.214h.363Z" transform="translate(-203.393 -157.91)" fill="#fff"/>
      <path id="패스_89" data-name="패스 89" d="M259.311,161.363l.112.345h.363l-.294.214.112.345-.294-.214-.294.214.112-.345-.294-.214h.363Z" transform="translate(-248.792 -157.91)" fill="#fff"/>
      <path id="패스_90" data-name="패스 90" d="M22.065,202.28l.112.345h.363l-.294.213.112.345-.294-.213-.294.213.112-.345-.294-.213h.363Z" transform="translate(-21.59 -197.095)" fill="#fff"/>
      <path id="패스_91" data-name="패스 91" d="M69.693,202.28l.112.345h.363l-.294.213.112.345-.294-.213-.294.213.112-.345-.294-.213h.363Z" transform="translate(-67.201 -197.095)" fill="#fff"/>
      <path id="패스_92" data-name="패스 92" d="M116.964,202.28l.112.345h.363l-.294.213.112.345-.294-.213-.294.213.112-.345-.294-.213h.363Z" transform="translate(-112.471 -197.095)" fill="#fff"/>
      <path id="패스_93" data-name="패스 93" d="M164.591,202.28l.112.345h.363l-.294.213.112.345-.294-.213-.294.213.112-.345-.294-.213h.363Z" transform="translate(-158.082 -197.095)" fill="#fff"/>
      <path id="패스_94" data-name="패스 94" d="M211.9,202.28l.112.345h.363l-.294.213.112.345-.294-.213-.294.213.112-.345-.294-.213h.363Z" transform="translate(-203.393 -197.095)" fill="#fff"/>
      <path id="패스_95" data-name="패스 95" d="M259.311,202.28l.112.345h.363l-.294.213.112.345-.294-.213-.294.213.112-.345-.294-.213h.363Z" transform="translate(-248.792 -197.095)" fill="#fff"/>
      <path id="패스_96" data-name="패스 96" d="M22.065,242.578l.112.345h.363l-.294.214.112.345-.294-.213-.294.213.112-.345-.294-.214h.363Z" transform="translate(-21.59 -235.686)" fill="#fff"/>
      <path id="패스_97" data-name="패스 97" d="M69.693,242.578l.112.345h.363l-.294.214.112.345-.294-.213-.294.213.112-.345-.294-.214h.363Z" transform="translate(-67.201 -235.686)" fill="#fff"/>
      <path id="패스_98" data-name="패스 98" d="M116.964,242.578l.112.345h.363l-.294.214.112.345-.294-.213-.294.213.112-.345-.294-.214h.363Z" transform="translate(-112.471 -235.686)" fill="#fff"/>
      <path id="패스_99" data-name="패스 99" d="M164.591,242.578l.112.345h.363l-.294.214.112.345-.294-.213-.294.213.112-.345-.294-.214h.363Z" transform="translate(-158.082 -235.686)" fill="#fff"/>
      <path id="패스_100" data-name="패스 100" d="M211.9,242.578l.112.345h.363l-.294.214.112.345-.294-.213-.294.213.112-.345-.294-.214h.363Z" transform="translate(-203.393 -235.686)" fill="#fff"/>
      <path id="패스_101" data-name="패스 101" d="M259.311,242.578l.112.345h.363l-.294.214.112.345-.294-.213-.294.213.112-.345-.294-.214h.363Z" transform="translate(-248.792 -235.686)" fill="#fff"/>
    </g>
  </g>
</svg>
