<?xml version="1.0" encoding="utf-8"?>
<!-- Generator: Adobe Illustrator 24.0.2, SVG Export Plug-In . SVG Version: 6.00 Build 0)  -->
<svg version="1.1" id="Layer_1" xmlns="http://www.w3.org/2000/svg" xmlns:xlink="http://www.w3.org/1999/xlink" x="0px" y="0px"
	 viewBox="0 0 30 30" style="enable-background:new 0 0 30 30;" xml:space="preserve">
<style type="text/css">
	.st0{fill:#2F427F;}
	.st1{fill:none;stroke:#272727;stroke-width:3;stroke-linecap:round;stroke-linejoin:round;}
</style>
<path class="st0" d="M19.91,15.66c-0.83,0-1.5-0.67-1.5-1.5V8.98c0-1.88-1.53-3.41-3.41-3.41s-3.41,1.53-3.41,3.41v5.18
	c0,0.83-0.67,1.5-1.5,1.5s-1.5-0.67-1.5-1.5V8.98c0-3.53,2.87-6.41,6.41-6.41c3.53,0,6.41,2.87,6.41,6.41v5.18
	C21.41,14.98,20.73,15.66,19.91,15.66z"/>
<path class="st1" d="M15,13.54"/>
<path class="st1" d="M15,24.8"/>
<path class="st1" d="M15,11.76"/>
<path class="st1" d="M15,18.28"/>
<path class="st1" d="M15,20.03"/>
<path class="st0" d="M15,11.13c-4.91,0-8.9,3.99-8.9,8.9c0,4.92,3.98,8.9,8.9,8.9c4.91,0,8.9-3.98,8.9-8.9
	C23.9,15.12,19.91,11.13,15,11.13z M16.1,21.5c0,0.61-0.49,1.1-1.1,1.1s-1.1-0.49-1.1-1.1v-2.63c0-0.61,0.49-1.1,1.1-1.1
	s1.1,0.49,1.1,1.1V21.5z"/>
</svg>
