<?xml version="1.0" encoding="utf-8"?>
<!-- Generator: Adobe Illustrator 24.0.2, SVG Export Plug-In . SVG Version: 6.00 Build 0)  -->
<svg version="1.1" id="Layer_1" xmlns="http://www.w3.org/2000/svg" xmlns:xlink="http://www.w3.org/1999/xlink" x="0px" y="0px"
	 viewBox="0 0 180 50" style="enable-background:new 0 0 180 50;" xml:space="preserve">
<style type="text/css">
	.st0{fill:#FFFFFF;stroke:#FFFFFF;stroke-width:2;stroke-miterlimit:10;}
	.st1{fill:#FFFFFF;}
</style>
<path class="st0" d="M49,36.95c-0.31,0-0.58-0.11-0.81-0.34s-0.34-0.49-0.34-0.81V15.2c0-0.31,0.11-0.58,0.34-0.81
	c0.22-0.22,0.49-0.34,0.81-0.34c0.31,0,0.58,0.11,0.81,0.34c0.22,0.23,0.34,0.49,0.34,0.81v9.97l10.7-10.7
	c0.16-0.16,0.3-0.26,0.44-0.32s0.29-0.09,0.47-0.09c0.35,0,0.62,0.11,0.79,0.32c0.18,0.22,0.26,0.47,0.25,0.78
	c-0.01,0.3-0.13,0.59-0.37,0.86l-8.03,8.03l8.12,11.08c0.18,0.25,0.25,0.52,0.22,0.81c-0.03,0.28-0.14,0.52-0.34,0.72
	s-0.43,0.29-0.7,0.29c-0.43,0-0.75-0.17-0.97-0.5l-7.97-10.79l-2.61,2.64v7.5c0,0.31-0.11,0.58-0.34,0.81S49.31,36.95,49,36.95z"/>
<path class="st0" d="M77.46,37.24c-1.7,0-3.26-0.29-4.69-0.88c-1.43-0.59-2.66-1.41-3.71-2.46s-1.86-2.3-2.43-3.72
	c-0.58-1.43-0.87-2.99-0.87-4.69c0-1.68,0.29-3.23,0.87-4.66c0.58-1.43,1.39-2.67,2.43-3.72c1.05-1.06,2.28-1.88,3.71-2.46
	c1.43-0.59,2.99-0.88,4.69-0.88c1.68,0,3.23,0.29,4.66,0.88c1.43,0.59,2.67,1.41,3.72,2.46c1.06,1.06,1.87,2.3,2.45,3.72
	c0.58,1.43,0.87,2.98,0.87,4.66c0,1.7-0.29,3.26-0.87,4.69c-0.58,1.43-1.39,2.67-2.45,3.72s-2.3,1.88-3.72,2.46
	C80.7,36.95,79.14,37.24,77.46,37.24z M77.46,35.07c1.35,0,2.6-0.24,3.75-0.72c1.15-0.48,2.15-1.15,3-2.02
	c0.85-0.87,1.51-1.89,1.98-3.05c0.47-1.16,0.7-2.43,0.7-3.8c0-1.35-0.24-2.6-0.7-3.77c-0.47-1.16-1.13-2.18-1.98-3.05
	c-0.85-0.87-1.85-1.54-3-2.02c-1.15-0.48-2.4-0.72-3.75-0.72c-1.37,0-2.63,0.24-3.78,0.72c-1.15,0.48-2.15,1.15-3,2.02
	c-0.85,0.87-1.51,1.89-1.98,3.05c-0.47,1.16-0.7,2.42-0.7,3.77c0,1.37,0.23,2.63,0.7,3.8c0.47,1.16,1.13,2.18,1.98,3.05
	c0.85,0.87,1.85,1.54,3,2.02C74.83,34.83,76.1,35.07,77.46,35.07z"/>
<path class="st0" d="M96.02,36.95c-0.33,0-0.61-0.11-0.82-0.32s-0.32-0.49-0.32-0.82V15.2c0-0.33,0.11-0.61,0.32-0.82
	c0.21-0.21,0.49-0.32,0.82-0.32h5.48c1.43,0,2.7,0.3,3.81,0.89c1.11,0.6,1.99,1.43,2.62,2.49c0.63,1.07,0.95,2.29,0.95,3.68
	c0,1.33-0.32,2.51-0.95,3.55c-0.63,1.04-1.51,1.85-2.62,2.43c-1.11,0.59-2.38,0.88-3.81,0.88h-4.34v7.83c0,0.33-0.11,0.61-0.32,0.82
	S96.35,36.95,96.02,36.95z M97.16,25.78h4.34c1,0,1.88-0.2,2.65-0.6c0.77-0.4,1.38-0.95,1.83-1.66c0.45-0.7,0.67-1.5,0.67-2.4
	c0-0.96-0.22-1.8-0.67-2.54c-0.45-0.73-1.06-1.3-1.83-1.72c-0.77-0.41-1.66-0.62-2.65-0.62h-4.34V25.78z M108.28,36.95
	c-0.25,0-0.45-0.05-0.6-0.15s-0.28-0.24-0.4-0.44l-5.63-8.97l2.29-0.59l5.25,8.38c0.29,0.47,0.35,0.88,0.16,1.23
	C109.16,36.77,108.8,36.95,108.28,36.95z"/>
<path class="st0" d="M118.89,36.95c-0.27,0-0.51-0.09-0.72-0.26c-0.21-0.18-0.35-0.4-0.43-0.67l-6.01-20.31
	c-0.14-0.47-0.11-0.86,0.07-1.17c0.19-0.31,0.48-0.47,0.89-0.47c0.23,0,0.45,0.06,0.66,0.19c0.21,0.13,0.36,0.36,0.46,0.69
	l5.42,18.88h-0.67l5.13-18.38c0.06-0.21,0.19-0.39,0.4-0.53s0.43-0.21,0.69-0.21c0.23,0,0.46,0.06,0.67,0.19
	c0.21,0.13,0.35,0.32,0.41,0.57l5.16,18.35h-0.67l5.45-19c0.14-0.51,0.51-0.76,1.11-0.76c0.41,0,0.69,0.16,0.85,0.48
	c0.16,0.32,0.18,0.71,0.06,1.16l-5.98,20.29c-0.1,0.31-0.25,0.55-0.45,0.72s-0.45,0.25-0.72,0.25s-0.51-0.09-0.72-0.26
	s-0.35-0.4-0.42-0.67l-5.1-18.61h0.7l-5.07,18.59c-0.1,0.29-0.25,0.53-0.46,0.7C119.4,36.86,119.16,36.95,118.89,36.95z"/>
<path class="st0" d="M139.18,36.95c-0.45,0-0.77-0.19-0.97-0.56s-0.21-0.73-0.06-1.08l8.62-20.46c0.21-0.53,0.59-0.79,1.11-0.79
	c0.51,0,0.87,0.26,1.08,0.79l8.65,20.49c0.18,0.37,0.15,0.73-0.07,1.08c-0.23,0.35-0.54,0.53-0.95,0.53c-0.23,0-0.44-0.06-0.63-0.18
	c-0.19-0.12-0.34-0.29-0.46-0.53l-8.06-19.55h0.91l-8.12,19.55c-0.1,0.23-0.24,0.41-0.43,0.53S139.41,36.95,139.18,36.95z
	 M141.12,31.5l0.88-1.96h11.9l0.88,1.96H141.12z"/>
<path class="st0" d="M163.19,36.95c-0.33,0-0.61-0.11-0.82-0.32s-0.32-0.49-0.32-0.82V15.2c0-0.33,0.11-0.61,0.32-0.82
	c0.21-0.21,0.49-0.32,0.82-0.32h5.86c1.45,0,2.73,0.32,3.84,0.95c1.11,0.64,1.98,1.51,2.61,2.62c0.63,1.11,0.94,2.4,0.94,3.87
	c0,1.43-0.31,2.69-0.94,3.8c-0.63,1.1-1.5,1.97-2.61,2.61c-1.11,0.64-2.39,0.95-3.84,0.95h-4.72v6.95c0,0.33-0.11,0.61-0.32,0.82
	S163.53,36.95,163.19,36.95z M164.34,26.66h4.72c1,0,1.89-0.22,2.67-0.66c0.78-0.44,1.39-1.05,1.83-1.83
	c0.44-0.78,0.66-1.67,0.66-2.67c0-1.04-0.22-1.94-0.66-2.73c-0.44-0.78-1.05-1.4-1.83-1.85c-0.78-0.45-1.67-0.67-2.67-0.67h-4.72
	V26.66z"/>
<g>
	<path class="st1" d="M15.39,14.72c-1.32,1.32-1.32,3.47,0,4.79l9.26,9.26l0,0c1.49,1.41,2.41,3.4,2.41,5.58
		c0,4.24-3.45,7.69-7.69,7.69c-1.73,0-3.32-0.58-4.6-1.54l0,0L9.6,35.4c-1.32-1.32-3.47-1.32-4.79,0c-1.32,1.32-1.32,3.47,0,4.79
		l5.13,5.13l0,0c0,0,0,0,0,0l0.03,0.03l0,0c2.53,2.16,5.81,3.47,9.39,3.47c7.98,0,14.47-6.49,14.47-14.47c0-1.99-0.41-3.9-1.15-5.65
		c-0.11-0.25-0.23-0.5-0.35-0.75c-0.04-0.08-0.08-0.16-0.12-0.24c-0.09-0.17-0.18-0.34-0.27-0.5c-0.05-0.09-0.1-0.17-0.15-0.26
		c-0.13-0.21-0.26-0.42-0.39-0.62c-0.08-0.12-0.16-0.23-0.24-0.34c-0.07-0.1-0.14-0.19-0.21-0.29c-0.1-0.13-0.2-0.26-0.3-0.38
		c-0.05-0.06-0.1-0.12-0.15-0.19c-0.25-0.3-0.51-0.59-0.78-0.87c0,0,0,0,0,0l-9.53-9.55C18.86,13.4,16.71,13.4,15.39,14.72z"/>
	<path class="st1" d="M26.74,5.65c-2.53-2.16-5.81-3.47-9.39-3.47c-7.98,0-14.47,6.49-14.47,14.47c0,1.99,0.41,3.9,1.15,5.65
		c0.11,0.25,0.23,0.5,0.35,0.75c0.04,0.08,0.08,0.16,0.12,0.24c0.09,0.17,0.18,0.34,0.27,0.5c0.05,0.09,0.1,0.17,0.15,0.26
		c0.13,0.21,0.26,0.42,0.39,0.62c0.08,0.12,0.16,0.23,0.24,0.34c0.07,0.1,0.14,0.19,0.21,0.29c0.1,0.13,0.2,0.26,0.3,0.38
		c0.05,0.06,0.1,0.12,0.15,0.19c0.25,0.3,0.51,0.59,0.78,0.87c0,0,0,0,0,0L6.96,26.7l9.57,9.57c1.32,1.32,3.47,1.32,4.79,0
		c1.32-1.32,1.32-3.47,0-4.79l-9.26-9.26l0,0c-1.49-1.41-2.4-3.41-2.4-5.59c0-4.24,3.45-7.69,7.69-7.69c1.73,0,3.32,0.58,4.6,1.54
		l0,0l5.16,5.11c1.32,1.32,3.47,1.32,4.79,0c1.32-1.32,1.32-3.47,0-4.79c0,0-5.13-5.13-5.13-5.13L26.74,5.65z"/>
</g>
</svg>
