<svg xmlns="http://www.w3.org/2000/svg" xmlns:xlink="http://www.w3.org/1999/xlink" width="161.5" height="33" viewBox="0 0 161.5 33">
  <defs>
    <clipPath id="clip-path">
      <rect id="사각형_3" data-name="사각형 3" width="121" height="20" transform="translate(-0.301 -0.393)" fill="#fff" stroke="#707070" stroke-width="1"/>
    </clipPath>
  </defs>
  <g id="top_logo_sto02" transform="translate(-79.5 -21.5)">
    <g id="구성_요소_1_2" data-name="구성 요소 1 – 2" transform="translate(80 22)">
      <path id="합치기_1" data-name="합치기 1" d="M2.652,24.823l4.429-2.051,0,0,15.2-7.043v4.726L10.694,25.865a11.2,11.2,0,0,0,16.24-12.289l4.43-2.052a16,16,0,0,1-28.712,13.3ZM0,16A16,16,0,0,1,29.559,7.5h0l0,0-4.4,2.05-.007-.011L9.944,16.6V11.872l11.783-5.5A11.2,11.2,0,0,0,5.171,18.865L.77,20.914A15.984,15.984,0,0,1,0,16Z" fill="#2842fc" stroke="rgba(0,0,0,0)" stroke-miterlimit="10" stroke-width="1"/>
    </g>
    <g id="마스크_그룹_1" data-name="마스크 그룹 1" transform="translate(120.301 29.393)" clip-path="url(#clip-path)">
      <path id="패스_1025" data-name="패스 1025" d="M7.13.161A7.625,7.625,0,0,1,4.106-.414,4.966,4.966,0,0,1,1.978-2.07a4.36,4.36,0,0,1-.8-2.553h3.45a2.231,2.231,0,0,0,.7,1.564,2.485,2.485,0,0,0,1.736.575,2.671,2.671,0,0,0,1.771-.541,1.758,1.758,0,0,0,.644-1.414,1.634,1.634,0,0,0-.437-1.173,3.062,3.062,0,0,0-1.093-.724,18.08,18.08,0,0,0-1.806-.587A19.337,19.337,0,0,1,3.6-7.832,4.451,4.451,0,0,1,1.921-9.189a3.867,3.867,0,0,1-.7-2.426A4.338,4.338,0,0,1,1.932-14.1a4.535,4.535,0,0,1,2-1.622,7.28,7.28,0,0,1,2.944-.563,6.387,6.387,0,0,1,4.036,1.207,4.477,4.477,0,0,1,1.714,3.37H9.085a1.84,1.84,0,0,0-.7-1.369,2.643,2.643,0,0,0-1.736-.54,2.236,2.236,0,0,0-1.507.483,1.746,1.746,0,0,0-.563,1.4A1.45,1.45,0,0,0,5-10.661a3.245,3.245,0,0,0,1.058.69q.632.265,1.783.61a18.726,18.726,0,0,1,2.553.92,4.585,4.585,0,0,1,1.7,1.38,3.833,3.833,0,0,1,.713,2.415,4.543,4.543,0,0,1-.667,2.392,4.709,4.709,0,0,1-1.955,1.76A6.668,6.668,0,0,1,7.13.161ZM18.354-16.054V0h-3.22V-16.054Zm13.892,4.83a3.769,3.769,0,0,0-1.518-1.541,4.62,4.62,0,0,0-2.254-.529,4.928,4.928,0,0,0-2.53.644,4.448,4.448,0,0,0-1.725,1.84A5.9,5.9,0,0,0,23.6-8.05a5.919,5.919,0,0,0,.632,2.806A4.478,4.478,0,0,0,25.99-3.4a5.193,5.193,0,0,0,2.622.644,4.548,4.548,0,0,0,3.013-.977,4.665,4.665,0,0,0,1.541-2.726h-5.52V-8.924H36.34v2.806a7.542,7.542,0,0,1-1.38,3.1A7.792,7.792,0,0,1,32.235-.725,8.014,8.014,0,0,1,28.5.138,8.462,8.462,0,0,1,24.3-.909a7.614,7.614,0,0,1-2.944-2.91A8.346,8.346,0,0,1,20.286-8.05a8.409,8.409,0,0,1,1.069-4.243A7.591,7.591,0,0,1,24.3-15.215a8.416,8.416,0,0,1,4.174-1.046,8.354,8.354,0,0,1,4.715,1.322,6.753,6.753,0,0,1,2.76,3.714Zm23.529-4.83V0h-3.22V-10.442L48.254,0H45.816L41.492-10.442V0h-3.22V-16.054h3.657L47.035-4.117l5.106-11.937Zm12.558,13H61.939L60.881,0H57.5l5.773-16.077h3.749L72.795,0h-3.4Zm-.874-2.576-2.323-6.716L62.813-5.635Zm17.6,5.8A7.625,7.625,0,0,1,82.03-.414,4.966,4.966,0,0,1,79.9-2.07,4.36,4.36,0,0,1,79.1-4.623h3.45a2.231,2.231,0,0,0,.7,1.564,2.485,2.485,0,0,0,1.736.575,2.671,2.671,0,0,0,1.771-.541A1.758,1.758,0,0,0,87.4-4.439a1.634,1.634,0,0,0-.437-1.173,3.062,3.062,0,0,0-1.092-.724,18.08,18.08,0,0,0-1.806-.587,19.337,19.337,0,0,1-2.541-.908,4.452,4.452,0,0,1-1.679-1.357,3.867,3.867,0,0,1-.7-2.426,4.338,4.338,0,0,1,.713-2.484,4.535,4.535,0,0,1,2-1.622,7.28,7.28,0,0,1,2.944-.563,6.387,6.387,0,0,1,4.036,1.207,4.477,4.477,0,0,1,1.714,3.37H87.009a1.84,1.84,0,0,0-.7-1.369,2.643,2.643,0,0,0-1.736-.54,2.236,2.236,0,0,0-1.507.483,1.746,1.746,0,0,0-.563,1.4,1.45,1.45,0,0,0,.425,1.07,3.245,3.245,0,0,0,1.058.69q.633.265,1.783.61a18.727,18.727,0,0,1,2.553.92,4.585,4.585,0,0,1,1.7,1.38,3.833,3.833,0,0,1,.713,2.415,4.543,4.543,0,0,1-.667,2.392,4.709,4.709,0,0,1-1.955,1.76A6.668,6.668,0,0,1,85.054.161Zm18.929-16.215v2.6H99.705V0h-3.22V-13.455H92.207v-2.6ZM113.321.161A8.318,8.318,0,0,1,109.181-.9a7.9,7.9,0,0,1-2.99-2.932,8.2,8.2,0,0,1-1.1-4.243,8.159,8.159,0,0,1,1.1-4.22,7.9,7.9,0,0,1,2.99-2.933,8.318,8.318,0,0,1,4.14-1.058,8.3,8.3,0,0,1,4.151,1.058,7.839,7.839,0,0,1,2.967,2.933,8.226,8.226,0,0,1,1.092,4.22,8.27,8.27,0,0,1-1.092,4.243A7.815,7.815,0,0,1,117.461-.9,8.318,8.318,0,0,1,113.321.161Zm0-2.875a4.905,4.905,0,0,0,2.553-.655A4.494,4.494,0,0,0,117.6-5.244a6.151,6.151,0,0,0,.621-2.829,6.08,6.08,0,0,0-.621-2.818,4.432,4.432,0,0,0-1.725-1.852,4.973,4.973,0,0,0-2.553-.644,5.036,5.036,0,0,0-2.564.644,4.41,4.41,0,0,0-1.737,1.852,6.08,6.08,0,0,0-.621,2.818,6.151,6.151,0,0,0,.621,2.829,4.47,4.47,0,0,0,1.737,1.875A4.967,4.967,0,0,0,113.321-2.714Z" transform="translate(-1.033 17.194)" fill="#272727"/>
    </g>
  </g>
</svg>
